{"glyphs":{"0":{"ha":675,"x_min":3,"x_max":672,"o":"m 351 1021 q 205 985 270 1021 q 96 880 142 949 q 26 709 50 810 q 3 484 3 610 q 25 272 3 366 q 90 113 47 178 q 196 14 134 48 q 338 -20 259 -20 q 480 14 418 -20 q 585 114 543 48 q 650 277 628 180 q 672 498 672 374 q 635 782 672 665 q 526 960 598 900 q 351 1021 454 1021 m 340 852 q 405 819 381 852 q 438 715 428 787 q 449 521 449 644 q 440 295 449 375 q 409 181 431 215 q 349 147 388 147 q 279 184 304 147 q 243 306 254 222 q 232 538 232 389 q 243 717 232 648 q 278 819 254 786 q 340 852 302 852 z "},"1":{"ha":489,"x_min":-3,"x_max":494,"o":"m -3 753 l -3 913 q 139 936 94 913 q 229 1034 183 960 l 366 1034 l 366 159 l 494 159 l 494 0 l 3 0 l 3 159 l 142 159 l 142 753 l -3 753 z "},"2":{"ha":649,"x_min":-5,"x_max":648,"o":"m -5 0 q 21 171 4 101 q 71 300 37 241 q 161 423 103 360 q 311 570 218 487 q 391 659 369 624 q 413 742 413 694 q 396 805 413 780 q 354 842 378 830 q 309 854 330 854 q 250 828 275 854 q 219 758 225 802 q 216 642 216 728 l 14 653 q 38 808 21 748 q 87 910 54 867 q 194 994 131 966 q 328 1021 258 1021 q 479 987 407 1021 q 595 888 551 953 q 640 739 640 823 q 591 582 640 646 q 529 517 568 553 q 446 444 490 481 q 353 366 401 406 q 285 304 305 326 q 213 164 231 249 l 482 164 l 482 299 l 648 299 l 648 0 l -5 0 z "},"3":{"ha":675,"x_min":0,"x_max":664,"o":"m 0 299 l 180 328 q 201 233 191 269 q 239 173 212 198 q 315 147 267 147 q 406 189 374 147 q 437 290 437 231 q 422 363 437 329 q 380 418 408 397 q 346 436 360 433 q 285 439 331 439 l 256 439 l 256 609 q 344 618 321 610 q 386 648 367 627 q 420 747 420 685 q 321 854 420 854 q 264 842 279 854 q 238 806 248 829 q 216 715 227 777 l 28 730 q 53 855 31 800 q 114 946 75 909 q 209 1003 153 983 q 335 1021 264 1021 q 493 989 425 1021 q 597 898 561 957 q 633 763 633 840 q 597 624 633 680 q 483 530 562 568 q 622 435 580 490 q 664 296 664 382 q 621 128 664 201 q 500 15 578 55 q 321 -26 422 -26 q 154 13 225 -26 q 42 126 82 52 q 0 299 3 199 z "},"4":{"ha":675,"x_min":-11,"x_max":678,"o":"m -11 431 l 39 274 l 385 274 l 385 159 l 260 159 l 260 0 l 678 0 l 678 159 l 591 159 l 591 274 l 678 274 l 678 420 l 588 420 l 588 1029 l 404 1029 l -11 431 m 149 420 l 382 783 l 385 420 l 149 420 z "},"5":{"ha":675,"x_min":-3,"x_max":664,"o":"m -3 269 l 178 293 q 224 183 192 217 q 318 150 256 150 q 410 194 380 153 q 439 319 439 235 q 423 408 439 369 q 380 467 408 446 q 318 488 353 488 q 253 469 280 488 q 197 403 226 450 l 47 479 l 75 1000 l 623 1000 l 623 755 l 479 755 l 479 835 l 218 835 l 207 587 q 281 641 244 624 q 375 659 317 659 q 526 618 460 659 q 628 505 591 578 q 664 336 664 431 q 622 146 664 228 q 501 21 579 65 q 318 -23 422 -23 q 168 7 235 -23 q 58 93 100 38 q -3 269 16 151 z "},"6":{"ha":675,"x_min":8,"x_max":669,"o":"m 227 575 q 323 635 285 618 q 410 650 361 650 q 547 611 488 650 q 637 501 606 572 q 669 334 669 429 q 631 151 669 231 q 521 27 592 71 q 360 -17 450 -17 q 211 18 277 -17 q 100 121 145 54 q 32 286 55 189 q 8 505 8 382 q 43 754 8 634 q 160 954 79 874 q 370 1034 241 1034 q 520 1000 454 1034 q 625 906 587 967 q 669 766 664 845 l 474 734 q 429 835 455 805 q 360 865 404 865 q 261 795 294 865 q 227 575 229 724 m 229 431 q 260 223 229 291 q 354 156 290 156 q 439 201 410 156 q 469 311 469 246 q 436 431 469 380 q 346 483 404 483 q 287 470 311 483 q 229 431 262 458 z "},"7":{"ha":614,"x_min":3,"x_max":617,"o":"m 3 682 l 3 1000 l 617 1000 l 617 874 q 495 651 548 770 q 414 406 443 532 q 385 159 385 280 l 513 159 l 513 0 l 22 0 l 22 159 l 157 159 q 244 533 186 373 q 421 838 313 723 l 151 838 l 151 682 l 3 682 z "},"8":{"ha":675,"x_min":0,"x_max":678,"o":"m 149 526 q 63 457 96 495 q 15 373 30 420 q 0 265 0 326 q 42 113 0 177 q 161 15 83 49 q 346 -20 240 -20 q 588 60 515 -20 q 678 262 678 138 q 661 366 678 315 q 610 459 644 417 q 532 526 576 502 q 621 616 589 555 q 653 757 653 677 q 610 904 653 843 q 497 996 567 965 q 347 1027 427 1027 q 192 995 266 1027 q 73 900 118 962 q 28 750 28 837 q 60 617 28 675 q 149 526 92 559 m 338 446 q 437 400 402 446 q 473 290 473 353 q 437 183 473 229 q 338 138 402 138 q 241 183 275 138 q 207 293 207 229 q 241 400 207 354 q 338 446 275 446 m 338 871 q 420 832 391 871 q 449 738 449 793 q 419 643 449 682 q 335 604 390 604 q 258 642 285 604 q 231 735 231 681 q 259 830 231 789 q 338 871 288 871 z "},"9":{"ha":675,"x_min":5,"x_max":664,"o":"m 9 250 l 199 277 q 243 177 220 203 q 313 150 267 150 q 385 178 357 150 q 427 268 412 207 q 446 437 440 330 q 351 376 390 393 q 265 359 312 359 q 129 399 188 359 q 38 510 70 439 q 5 677 5 582 q 44 862 5 781 q 153 987 82 943 q 315 1032 224 1032 q 504 970 426 1032 q 623 789 583 907 q 664 505 664 670 q 640 286 664 383 q 568 121 616 189 q 454 16 522 52 q 302 -20 387 -20 q 189 -2 240 -20 q 100 52 138 17 q 39 136 62 87 q 9 250 16 184 m 443 583 q 430 739 443 679 q 387 829 416 800 q 313 857 359 857 q 237 817 264 857 q 210 705 210 777 q 241 577 210 624 q 327 530 273 530 q 391 543 366 530 q 443 583 416 557 z "},"#":{"ha":1042,"x_min":174,"x_max":868,"o":"m 174 0 l 174 868 l 868 868 l 868 0 l 174 0 m 846 22 l 846 846 l 195 846 l 195 22 l 846 22 z "}," ":{"ha":371,"x_min":0,"x_max":0,"o":""},"!":{"ha":277,"x_min":36,"x_max":257,"o":"m 36 0 l 253 0 l 253 239 l 36 239 l 36 0 m 36 771 l 90 354 l 199 354 l 257 781 l 257 1007 l 36 1007 l 36 771 z "},"\"":{"ha":524,"x_min":12,"x_max":509,"o":"m 12 524 l 36 526 q 161 562 117 534 q 223 647 205 589 q 242 806 242 705 l 242 1007 l 17 1007 l 17 768 l 114 768 q 119 738 119 753 q 87 665 119 696 q 12 625 55 633 l 12 524 m 282 530 l 319 530 q 466 608 422 530 q 509 798 509 686 l 509 1007 l 282 1007 l 282 768 l 385 768 q 363 666 383 693 q 282 633 342 640 l 282 530 z "},"$":{"ha":675,"x_min":5,"x_max":675,"o":"m 189 334 l 32 334 l 32 0 l 189 0 l 189 73 q 228 27 213 40 q 277 0 243 15 l 277 -143 l 363 -143 l 363 -25 q 461 -16 422 -22 q 528 4 500 -9 q 579 38 555 16 q 651 142 626 79 q 675 277 675 206 q 645 410 675 353 q 563 509 614 468 q 467 574 513 550 q 315 653 422 599 q 239 707 262 680 q 216 771 216 733 q 242 838 216 812 q 315 863 269 863 q 457 707 437 863 l 612 707 l 611 1000 l 454 1000 l 454 938 q 420 975 437 962 q 363 1007 403 988 l 363 1116 l 277 1116 l 277 1021 q 111 972 162 1013 q 34 873 62 939 q 5 734 5 808 q 68 553 5 628 q 266 425 132 478 q 405 346 363 385 q 446 256 446 307 q 414 176 446 208 q 332 143 382 143 q 230 189 264 143 q 189 334 196 235 z "},"%":{"ha":742,"x_min":3,"x_max":742,"o":"m 180 1027 q 52 955 100 1027 q 3 763 3 884 q 47 554 3 627 q 175 482 92 482 q 311 556 261 482 q 360 757 360 630 q 313 956 360 885 q 180 1027 267 1027 m 86 -3 l 155 -41 l 327 313 l 669 1013 l 591 1050 l 424 699 l 86 -3 m 184 921 q 232 760 232 921 q 218 634 232 680 q 180 589 205 589 q 136 742 136 589 q 184 921 136 921 m 570 521 q 472 487 514 521 q 408 390 430 452 q 385 245 385 328 q 429 45 385 113 q 559 -22 474 -22 q 742 239 721 -22 q 696 448 742 375 q 570 521 650 521 m 567 417 q 611 248 611 417 q 598 125 611 170 q 564 81 586 81 q 518 231 518 81 q 567 417 518 417 z "},"&":{"ha":987,"x_min":3,"x_max":992,"o":"m 639 113 l 722 0 l 992 0 l 992 158 l 878 158 l 764 262 q 833 363 812 329 q 878 460 853 398 l 992 460 l 992 604 l 771 604 q 739 505 759 547 q 669 392 718 464 l 516 587 q 645 698 610 650 q 681 806 681 746 q 661 896 681 857 q 606 963 641 936 q 529 1003 572 989 q 439 1017 486 1017 q 316 991 374 1017 q 222 917 258 966 q 186 798 186 867 q 253 612 186 705 q 119 521 170 562 q 36 421 68 480 q 3 282 3 362 q 45 124 3 195 q 163 15 88 54 q 332 -25 239 -25 q 418 -14 377 -25 q 492 15 459 -3 q 548 48 526 33 q 639 113 570 63 m 539 245 q 458 182 504 207 q 375 158 414 158 q 294 184 334 158 q 231 250 256 209 q 207 336 207 292 q 234 414 207 378 q 335 502 260 449 l 539 245 m 431 701 q 370 825 370 770 q 390 877 370 859 q 442 895 411 895 q 496 876 473 895 q 519 823 519 857 q 500 763 519 787 q 431 701 482 739 z "},"'":{"ha":245,"x_min":8,"x_max":237,"o":"m 8 526 l 29 526 q 188 588 138 526 q 237 783 237 649 l 237 1010 l 8 1010 l 8 766 l 111 766 q 89 669 111 703 q 8 628 66 636 l 8 526 z "},"(":{"ha":370,"x_min":3,"x_max":375,"o":"m 375 -81 l 375 66 q 282 168 317 110 q 231 307 248 227 q 216 498 216 387 q 231 688 216 609 q 282 827 248 768 q 375 935 317 887 l 375 1076 q 177 938 261 1025 q 48 741 93 852 q 3 510 3 631 q 46 278 3 388 q 173 78 89 169 q 375 -81 256 -14 z "},")":{"ha":370,"x_min":-5,"x_max":368,"o":"m -3 935 q 87 827 53 888 q 138 688 122 768 q 155 502 155 609 q 121 244 155 357 q -5 66 87 130 l -5 -81 q 154 32 84 -33 q 271 170 224 95 q 344 330 319 245 q 368 507 368 415 q 343 686 368 601 q 270 845 319 771 q 152 979 221 920 q -3 1076 83 1038 l -3 935 z "},"*":{"ha":649,"x_min":-5,"x_max":656,"o":"m -5 768 l 146 715 q 229 732 195 730 q 269 728 245 732 q 236 684 256 698 q 163 659 215 671 l 70 530 l 197 431 l 296 559 q 323 677 296 637 q 342 644 336 663 q 352 606 349 626 q 360 559 355 587 l 452 431 l 583 530 l 492 648 q 426 677 450 661 q 380 728 401 694 q 429 734 414 734 q 503 715 467 734 l 656 768 l 606 918 l 452 854 q 446 849 448 852 q 442 846 443 846 q 404 814 414 820 q 368 806 393 808 q 410 904 368 870 l 410 1071 l 242 1071 l 242 904 q 268 869 259 890 q 282 803 276 848 q 240 822 254 812 q 197 865 226 833 l 42 918 l -5 768 z "},",":{"ha":245,"x_min":8,"x_max":237,"o":"m 8 -239 q 139 -214 89 -239 q 214 -137 189 -189 q 237 0 237 -84 l 237 242 l 8 242 l 8 0 l 111 0 q 86 -99 109 -68 q 8 -135 64 -129 l 8 -239 z "},"-":{"ha":399,"x_min":9,"x_max":385,"o":"m 9 279 l 385 279 l 385 468 l 9 468 l 9 279 z "},".":{"ha":245,"x_min":8,"x_max":237,"o":"m 8 0 l 237 0 l 237 242 l 8 242 l 8 0 z "},"/":{"ha":675,"x_min":-3,"x_max":678,"o":"m -3 -60 l 175 -60 l 363 354 l 678 1059 l 503 1059 l 315 645 l -3 -60 z "},":":{"ha":277,"x_min":39,"x_max":265,"o":"m 39 0 l 265 0 l 265 241 l 39 241 l 39 0 m 39 477 l 265 477 l 265 717 l 39 717 l 39 477 z "},";":{"ha":277,"x_min":39,"x_max":265,"o":"m 39 -242 l 64 -242 q 217 -177 169 -242 q 265 28 265 -113 l 265 241 l 39 241 l 39 0 l 143 0 q 134 -74 142 -47 q 104 -114 126 -100 q 39 -138 83 -128 l 39 -242 m 39 477 l 265 477 l 265 715 l 39 715 l 39 477 z "},"<":{"ha":709,"x_min":-12,"x_max":720,"o":"m -12 372 l 227 29 l 431 29 l 194 375 l 433 707 l 232 707 l -12 372 m 273 363 l 515 29 l 715 29 l 479 372 l 720 707 l 521 707 l 273 363 z "},">":{"ha":709,"x_min":-12,"x_max":720,"o":"m -12 29 l 175 29 l 436 372 l 197 707 l -3 707 l 235 363 l -12 29 m 276 29 l 465 29 l 720 363 l 482 707 l 281 707 l 521 360 l 276 29 z "},"?":{"ha":675,"x_min":-3,"x_max":675,"o":"m -3 728 l 204 728 q 233 844 207 801 q 327 888 258 888 q 422 853 390 888 q 454 753 454 818 q 418 653 454 684 q 323 621 381 621 q 239 636 282 621 l 245 357 l 357 357 l 375 463 q 495 480 453 469 q 572 510 538 490 q 675 736 675 581 q 634 897 675 828 q 516 1002 593 965 q 338 1039 440 1039 q 162 1003 240 1039 q 41 902 84 966 q -3 755 -3 838 l -3 728 m 184 0 l 413 0 l 413 242 l 184 242 l 184 0 z "},"A":{"ha":1080,"x_min":9,"x_max":1071,"o":"m 9 0 l 465 0 l 465 161 l 351 161 l 401 342 l 689 342 l 730 161 l 614 161 l 614 0 l 1071 0 l 1071 161 l 979 161 l 768 835 l 888 835 l 888 1000 l 204 1000 l 204 835 l 327 835 l 103 161 l 9 161 l 9 0 m 442 479 l 547 865 l 649 479 l 442 479 z "},"B":{"ha":861,"x_min":-3,"x_max":849,"o":"m -3 0 l 578 0 q 686 20 636 0 q 772 79 735 41 q 829 168 809 116 q 849 279 849 219 q 809 431 849 373 q 675 530 768 490 q 777 607 741 551 q 814 739 814 663 q 781 877 814 818 q 688 968 749 936 q 547 1000 627 1000 l -3 1000 l -3 835 l 109 835 l 109 161 l -3 161 l -3 0 m 360 158 l 360 435 l 465 435 q 554 392 522 435 q 587 293 587 349 q 555 198 587 239 q 468 158 524 158 l 360 158 m 360 597 l 360 838 l 442 838 q 528 802 496 838 q 559 718 559 766 q 528 633 559 669 q 442 597 497 597 l 360 597 z "},"C":{"ha":987,"x_min":12,"x_max":992,"o":"m 992 334 q 929 184 971 250 q 827 71 887 117 q 690 2 767 26 q 526 -22 614 -22 q 317 15 412 -22 q 153 122 222 52 q 48 290 84 193 q 12 505 12 387 q 48 720 12 622 q 152 888 84 818 q 314 997 220 959 q 521 1034 408 1034 q 631 1023 584 1034 q 696 1002 667 1016 q 750 970 726 987 q 797 929 774 952 l 797 1008 l 951 1007 l 951 656 l 786 656 q 539 857 717 857 q 400 813 459 857 q 310 686 341 769 q 279 493 279 604 q 297 354 279 416 q 350 249 315 292 q 434 183 384 205 q 547 161 484 161 q 708 224 646 161 q 806 425 770 287 l 992 334 z "},"D":{"ha":987,"x_min":-9,"x_max":985,"o":"m -9 0 l -9 161 l 102 161 l 102 835 l -9 835 l -9 1000 l 471 1000 q 783 926 669 1000 q 891 821 846 887 q 961 670 937 755 q 985 490 985 586 q 954 287 985 378 q 863 131 922 195 q 718 34 803 67 q 526 0 633 0 l -9 0 m 354 156 l 452 156 q 611 197 549 156 q 701 322 673 239 q 722 479 722 388 q 712 593 722 537 q 683 693 701 649 q 639 766 664 738 q 539 825 596 806 q 466 840 504 836 q 354 843 427 843 l 354 156 z "},"E":{"ha":832,"x_min":5,"x_max":823,"o":"m 5 0 l 5 161 l 114 161 l 114 835 l 5 835 l 5 1000 l 823 1000 l 823 680 l 642 680 l 642 838 l 366 838 l 366 589 l 597 589 l 597 428 l 366 428 l 366 159 l 642 159 l 642 319 l 823 319 l 823 0 l 5 0 z "},"F":{"ha":832,"x_min":5,"x_max":827,"o":"m 5 0 l 5 161 l 114 161 l 114 835 l 5 835 l 5 1000 l 827 1000 l 827 688 l 648 688 l 648 835 l 366 835 l 366 589 l 575 589 l 575 428 l 366 428 l 366 161 l 489 161 l 489 0 l 5 0 z "},"G":{"ha":1080,"x_min":16,"x_max":1065,"o":"m 1065 502 q 1029 264 1065 351 q 923 109 992 173 q 757 9 854 44 q 542 -25 660 -25 q 268 39 388 -25 q 82 218 149 102 q 16 484 16 334 q 53 709 16 608 q 160 882 90 810 q 327 994 229 956 q 542 1032 424 1032 q 712 1008 641 1032 q 835 929 784 983 l 835 1008 l 992 1007 l 992 660 l 820 660 q 730 792 786 745 q 559 851 661 851 q 406 803 469 851 q 310 676 342 755 q 277 508 277 597 q 296 376 277 441 q 352 262 315 313 q 444 183 389 212 q 567 153 497 153 q 718 206 654 153 q 795 339 781 258 l 623 339 l 623 502 l 1065 502 z "},"H":{"ha":987,"x_min":-3,"x_max":992,"o":"m -3 0 l 446 0 l 446 161 l 357 161 l 357 452 l 631 452 l 631 161 l 538 161 l 538 0 l 992 0 l 992 161 l 880 161 l 880 835 l 992 835 l 992 1000 l 539 1000 l 539 835 l 631 835 l 631 609 l 357 609 l 357 835 l 449 835 l 449 1000 l -3 1000 l -3 835 l 106 835 l 106 161 l -3 161 l -3 0 z "},"I":{"ha":463,"x_min":-3,"x_max":468,"o":"m -3 0 l 468 0 l 468 161 l 357 161 l 357 835 l 468 835 l 468 1000 l -3 1000 l -3 835 l 106 835 l 106 161 l -3 161 l -3 0 z "},"J":{"ha":489,"x_min":-58,"x_max":489,"o":"m -58 -299 l -58 -110 q 9 -117 -21 -117 q 77 -100 49 -117 q 116 -39 104 -81 q 127 81 127 4 l 127 835 l 3 835 l 3 1000 l 489 1000 l 489 836 l 375 836 l 375 14 q 321 -201 375 -134 q 62 -314 232 -314 q -58 -299 5 -314 z "},"K":{"ha":1046,"x_min":5,"x_max":1043,"o":"m 5 0 l 471 0 l 471 161 l 366 161 l 366 835 l 471 835 l 471 1000 l 5 1000 l 5 835 l 114 835 l 114 161 l 5 161 l 5 0 m 379 521 l 661 161 l 553 161 l 553 0 l 1043 0 l 1043 161 l 943 161 l 631 564 l 899 835 l 1013 835 l 1013 1000 l 575 1000 l 575 835 l 681 835 l 379 521 z "},"L":{"ha":832,"x_min":5,"x_max":823,"o":"m 5 0 l 5 161 l 114 161 l 114 835 l 5 835 l 5 1000 l 479 1000 l 479 835 l 366 835 l 366 159 l 659 159 l 659 468 l 823 468 l 823 0 l 5 0 z "},"M":{"ha":1356,"x_min":-5,"x_max":1364,"o":"m -5 0 l -5 161 l 103 161 l 103 835 l -5 835 l -5 1000 l 433 1000 l 661 322 l 904 1000 l 1364 1000 l 1364 835 l 1253 835 l 1253 161 l 1364 161 l 1364 0 l 890 0 l 890 161 l 999 161 l 999 831 l 689 0 l 582 0 l 271 846 l 271 161 l 375 161 l 375 0 l -5 0 z "},"N":{"ha":1018,"x_min":3,"x_max":1021,"o":"m 3 0 l 3 161 l 111 161 l 111 835 l 3 835 l 3 1000 l 391 1000 l 742 331 l 742 835 l 636 835 l 636 1000 l 1021 1000 l 1021 835 l 910 835 l 910 0 l 686 0 l 279 774 l 279 161 l 385 161 l 385 0 l 3 0 z "},"O":{"ha":1080,"x_min":11,"x_max":1065,"o":"m 539 1029 q 326 991 423 1029 q 158 880 229 952 q 49 710 87 809 q 11 493 11 611 q 48 281 11 377 q 154 116 85 185 q 320 9 223 47 q 532 -28 416 -28 q 750 9 652 -28 q 920 116 849 46 q 1028 285 990 186 q 1065 502 1065 383 q 1028 716 1065 618 q 921 884 991 814 q 754 991 851 954 q 539 1029 656 1029 m 542 849 q 648 824 600 849 q 730 753 696 799 q 782 642 764 707 q 800 498 800 578 q 783 353 800 418 q 733 243 766 288 q 653 174 700 197 q 545 150 606 150 q 398 200 460 150 q 306 332 337 250 q 275 503 275 413 q 305 672 275 593 q 397 800 336 751 q 542 849 457 849 z "},"P":{"ha":861,"x_min":0,"x_max":859,"o":"m 0 0 l 482 0 l 482 161 l 363 161 l 363 363 l 518 363 q 689 406 611 363 q 813 524 767 448 q 859 693 859 600 q 836 821 859 764 q 770 918 813 878 q 667 979 728 958 q 535 1000 607 1000 l 0 1000 l 0 835 l 111 835 l 111 161 l 0 161 l 0 0 m 363 529 l 363 843 l 457 843 q 533 824 501 843 q 583 770 565 805 q 600 688 600 735 q 582 602 600 637 q 529 548 564 566 q 446 529 494 529 l 363 529 z "},"Q":{"ha":1080,"x_min":14,"x_max":1063,"o":"m 376 -14 q 174 99 255 28 q 54 268 93 169 q 14 496 14 367 q 54 711 14 612 q 164 881 92 810 q 335 991 236 952 q 553 1029 435 1029 q 761 992 667 1029 q 923 883 855 954 q 1027 716 991 813 q 1063 502 1063 620 q 1052 382 1063 441 q 1021 272 1042 324 q 970 176 1000 220 q 901 96 941 132 q 798 32 858 59 q 656 -14 738 5 q 853 -68 745 -68 q 923 -66 899 -68 l 859 -225 q 814 -228 829 -228 q 734 -218 772 -228 q 611 -167 677 -205 q 533 -129 557 -137 q 479 -121 509 -121 q 412 -134 439 -121 q 321 -195 385 -146 l 238 -93 q 376 -14 317 -18 m 539 848 q 432 825 479 848 q 351 756 385 801 q 300 646 318 711 q 282 502 282 581 q 313 319 282 398 q 404 196 345 239 q 539 153 462 153 q 649 176 600 153 q 731 241 697 198 q 783 347 765 285 q 800 488 800 410 q 768 678 800 596 q 676 804 736 760 q 539 848 617 848 z "},"R":{"ha":951,"x_min":-3,"x_max":957,"o":"m -3 0 l -3 161 l 106 161 l 106 835 l -3 835 l -3 1000 l 591 1000 q 699 981 650 1000 q 783 925 748 962 q 838 838 819 888 q 856 727 856 789 q 833 606 856 660 q 770 518 811 552 q 678 477 730 484 l 846 161 l 957 161 l 957 0 l 672 0 l 457 431 l 357 431 l 357 161 l 468 161 l 468 0 l -3 0 m 357 597 l 463 597 q 562 628 528 597 q 596 715 596 658 q 565 803 596 768 q 486 838 534 838 l 357 838 l 357 597 z "},"S":{"ha":675,"x_min":3,"x_max":672,"o":"m 189 334 q 225 194 189 243 q 330 144 262 144 q 410 178 377 144 q 444 258 444 212 q 410 339 444 304 q 359 377 394 357 q 278 419 323 397 q 190 464 233 441 q 121 504 148 486 q 30 604 58 549 q 3 736 3 659 q 37 883 3 818 q 131 985 71 948 q 265 1021 191 1021 q 378 999 328 1021 q 454 932 428 976 l 454 1000 l 608 1000 l 608 707 l 454 707 q 408 823 445 783 q 311 863 371 863 q 242 836 268 863 q 216 768 216 810 q 243 699 216 728 q 335 642 270 670 q 507 556 445 593 q 606 479 570 519 q 657 392 642 440 q 672 277 672 345 q 652 153 672 208 q 595 57 633 97 q 505 -4 557 17 q 388 -25 452 -25 q 189 73 256 -25 l 189 0 l 32 0 l 32 334 l 189 334 z "},"T":{"ha":861,"x_min":5,"x_max":856,"o":"m 5 600 l 5 1000 l 856 1000 l 856 603 l 689 603 l 689 838 l 555 838 l 555 161 l 689 161 l 689 0 l 163 0 l 163 161 l 307 161 l 307 838 l 163 838 l 163 600 l 5 600 z "},"U":{"ha":925,"x_min":5,"x_max":922,"o":"m 5 835 l 5 1000 l 454 1000 l 454 835 l 366 835 l 366 322 q 378 217 366 255 q 422 163 391 179 q 509 147 454 147 q 591 163 561 147 q 634 217 622 179 q 647 322 647 255 l 647 835 l 559 835 l 559 1000 l 922 1000 l 922 836 l 808 835 l 808 319 q 798 178 808 232 q 762 87 787 123 q 689 23 733 50 q 591 -19 645 -5 q 477 -33 537 -33 q 284 5 370 -33 q 160 106 198 43 q 117 315 117 182 l 117 835 l 5 835 z "},"V":{"ha":951,"x_min":0,"x_max":954,"o":"m 0 835 l 0 1000 l 439 1000 l 439 835 l 335 835 l 484 265 l 633 835 l 532 835 l 532 1000 l 954 1000 l 954 836 l 859 836 l 578 0 l 370 0 l 93 835 l 0 835 z "},"W":{"ha":1389,"x_min":8,"x_max":1383,"o":"m 8 835 l 8 1000 l 426 1000 l 426 835 l 334 835 l 465 279 l 616 835 l 538 835 l 539 1000 l 899 1000 l 899 835 l 820 835 l 951 296 l 1109 835 l 1015 835 l 1015 1000 l 1383 1000 l 1383 836 l 1295 836 l 1035 0 l 846 0 l 703 564 l 547 0 l 360 0 l 101 835 l 8 835 z "},"X":{"ha":951,"x_min":-3,"x_max":957,"o":"m -3 0 l 404 0 l 404 161 l 323 161 l 454 354 l 588 161 l 506 161 l 506 0 l 957 0 l 957 161 l 872 161 l 617 507 l 859 835 l 957 835 l 957 1000 l 545 1000 l 545 835 l 631 835 l 509 663 l 391 835 l 471 835 l 471 1000 l -3 1000 l -3 835 l 99 835 l 343 513 l 86 161 l -3 161 l -3 0 z "},"Y":{"ha":925,"x_min":-3,"x_max":930,"o":"m -3 835 l 83 835 l 330 389 l 330 161 l 204 161 l 204 0 l 710 0 l 710 161 l 585 161 l 585 389 l 832 835 l 930 835 l 930 1000 l 547 1000 l 547 835 l 628 835 l 486 581 l 363 835 l 436 835 l 436 1000 l -3 1000 l -3 835 z "},"Z":{"ha":768,"x_min":3,"x_max":762,"o":"m 3 0 l 3 159 l 474 843 l 199 843 l 199 656 l 39 656 l 39 1000 l 762 1000 l 762 857 l 282 161 l 600 161 l 600 357 l 762 357 l 762 0 l 3 0 z "},"[":{"ha":370,"x_min":36,"x_max":375,"o":"m 36 -60 l 375 -60 l 375 99 l 229 99 l 229 197 l 229 899 l 375 899 l 375 1059 l 36 1059 l 36 645 l 36 -60 z "},"]":{"ha":370,"x_min":-3,"x_max":335,"o":"m -3 899 l 142 899 l 142 803 l 142 99 l -3 99 l -3 -60 l 335 -60 l 335 354 l 335 1059 l -3 1059 l -3 899 z "},"_":{"ha":582,"x_min":-5,"x_max":593,"o":"m -5 -180 l -5 -214 l 593 -214 l 593 -180 l -5 -180 z "},"`":{"ha":151,"x_min":-207,"x_max":134,"o":"m -207 1021 l 0 792 l 134 792 l -5 1021 l -207 1021 z "},"a":{"ha":742,"x_min":12,"x_max":734,"o":"m 439 68 q 241 -7 359 -7 q 127 18 180 -7 q 43 91 75 42 q 12 208 12 139 q 44 329 12 276 q 135 411 77 382 q 269 440 194 440 q 340 434 309 440 q 439 403 371 427 q 432 496 439 471 q 402 543 425 522 q 314 576 366 576 q 189 510 237 576 l 22 543 q 98 646 56 608 q 198 702 140 685 q 340 720 257 720 q 565 660 488 720 q 642 487 642 601 l 642 159 l 734 159 l 734 0 l 439 0 l 439 68 m 436 200 l 436 262 q 360 305 381 297 q 313 313 338 313 q 245 283 271 313 q 221 214 221 253 q 242 156 221 180 q 302 132 262 132 q 436 200 366 132 z "},"b":{"ha":800,"x_min":5,"x_max":783,"o":"m 5 0 l 313 0 l 313 86 q 394 7 355 28 q 497 -14 433 -14 q 648 32 582 -14 q 748 158 713 77 q 783 346 783 240 q 763 492 783 425 q 706 609 743 559 q 618 686 669 659 q 506 713 567 713 q 404 688 449 713 q 313 607 359 663 l 313 1000 l 5 1000 l 5 838 l 99 838 l 99 159 l 5 159 l 5 0 m 444 538 q 513 513 483 538 q 559 446 543 490 q 575 345 575 401 q 541 205 575 256 q 444 156 506 156 q 369 182 400 156 q 322 252 338 209 q 307 345 307 296 q 322 439 307 395 q 369 511 338 484 q 444 538 400 538 z "},"c":{"ha":709,"x_min":9,"x_max":710,"o":"m 710 220 l 539 296 q 473 198 508 227 q 382 170 437 170 q 272 222 311 170 q 233 347 233 275 q 251 441 233 397 q 306 513 269 486 q 393 541 342 541 q 488 512 451 541 q 550 422 526 483 l 698 422 l 697 715 l 547 715 l 547 659 q 455 709 496 695 q 354 722 414 722 q 177 676 256 722 q 53 547 98 629 q 9 363 9 465 q 56 170 9 255 q 188 36 103 84 q 379 -12 272 -12 q 528 16 462 -12 q 640 94 594 42 q 710 220 686 146 z "},"d":{"ha":800,"x_min":9,"x_max":792,"o":"m 486 86 q 425 26 454 48 q 363 -5 396 4 q 288 -14 332 -14 q 136 37 199 -14 q 41 170 73 87 q 9 345 9 252 q 27 479 9 414 q 81 598 45 546 q 171 682 117 651 q 293 713 225 713 q 369 703 337 713 q 434 664 408 690 q 481 604 460 637 l 481 838 l 385 838 l 385 1000 l 697 1000 l 697 159 l 792 159 l 792 -1 l 486 -1 l 486 86 m 357 538 q 281 511 313 538 q 235 439 250 484 q 218 345 218 395 q 255 212 218 268 q 357 156 292 156 q 451 212 416 156 q 486 360 486 267 q 450 488 486 439 q 357 538 414 538 z "},"e":{"ha":709,"x_min":11,"x_max":697,"o":"m 692 175 q 565 28 646 77 q 366 -20 483 -20 q 220 6 286 -20 q 107 80 154 32 q 36 195 60 128 q 11 345 11 262 q 56 541 11 454 q 181 676 101 628 q 363 725 261 725 q 500 699 437 725 q 606 623 562 672 q 673 505 650 574 q 693 420 689 460 q 697 307 697 381 l 215 307 q 243 217 222 255 q 298 160 264 180 q 372 140 331 140 q 452 161 420 140 q 515 231 484 181 l 692 175 m 220 431 l 482 431 q 441 530 476 493 q 351 566 407 566 q 261 530 296 566 q 220 431 225 492 z "},"f":{"ha":399,"x_min":-5,"x_max":567,"o":"m -5 0 l -5 159 l 90 159 l 90 547 l -5 547 l -5 707 l 96 707 q 92 779 92 741 q 139 946 92 882 q 230 1013 175 990 q 346 1036 285 1036 q 473 1008 414 1036 q 567 926 532 980 l 407 814 q 378 871 391 856 q 343 888 363 888 q 315 867 321 888 q 309 707 309 848 l 407 707 l 407 547 l 309 547 l 309 159 l 407 159 l 407 0 l -5 0 z "},"g":{"ha":800,"x_min":11,"x_max":798,"o":"m 497 104 q 419 23 459 45 q 311 0 378 0 q 151 42 218 0 q 47 164 83 84 q 11 354 11 243 q 48 543 11 458 q 153 675 86 627 q 302 722 220 722 q 410 694 360 722 q 489 615 459 667 l 489 707 l 798 707 l 798 547 l 700 547 l 700 54 q 690 -83 700 -38 q 652 -165 680 -128 q 529 -253 608 -223 q 343 -282 450 -282 q 47 -197 166 -282 l 157 -68 q 340 -117 246 -117 q 482 -43 446 -117 q 497 104 497 -2 m 360 547 q 359 547 359 547 q 266 496 298 547 q 232 356 232 446 q 267 212 232 262 q 366 161 301 161 q 456 210 424 161 q 489 346 489 258 q 474 455 489 409 q 429 524 458 500 q 360 547 400 547 z "},"h":{"ha":800,"x_min":3,"x_max":800,"o":"m 3 0 l 413 0 l 413 159 l 318 159 l 318 479 q 433 522 395 522 q 489 449 489 522 l 489 0 l 800 0 l 800 159 l 706 159 l 703 513 q 654 663 703 610 q 515 717 604 717 q 315 625 409 717 l 315 1000 l 9 1000 l 9 838 l 102 838 l 102 159 l 3 159 l 3 0 z "},"i":{"ha":399,"x_min":0,"x_max":401,"o":"m 0 0 l 401 0 l 401 159 l 307 158 l 307 707 l 0 707 l 0 547 l 93 547 l 93 159 l 0 159 l 0 0 m 210 1034 q 120 996 153 1034 q 87 907 87 958 q 119 822 87 859 q 207 786 151 786 q 296 824 264 786 q 328 911 328 862 q 297 998 328 962 q 210 1034 266 1034 z "},"j":{"ha":338,"x_min":-64,"x_max":315,"o":"m -64 -294 l -64 -113 q 19 -110 3 -113 q 50 -100 36 -108 q 79 -58 71 -89 q 87 29 87 -28 l 87 547 l -5 547 l -5 707 l 302 707 l 302 14 q 296 -95 302 -52 q 275 -166 290 -137 q 232 -222 260 -195 q 25 -294 157 -294 l -64 -294 m 199 1039 q 285 1002 254 1039 q 315 914 315 966 q 283 824 315 863 q 195 785 251 785 q 111 823 140 785 q 81 910 81 861 q 112 1001 81 962 q 199 1039 143 1039 z "},"k":{"ha":832,"x_min":9,"x_max":829,"o":"m 9 0 l 407 0 l 407 159 l 315 159 l 315 349 l 603 0 l 829 0 l 829 159 l 734 159 l 547 380 l 745 570 l 824 570 l 824 707 l 407 707 l 407 570 l 535 570 l 313 368 l 313 1000 l 9 1000 l 9 838 l 102 838 l 102 159 l 9 159 l 9 0 z "},"l":{"ha":399,"x_min":0,"x_max":401,"o":"m 0 0 l 0 159 l 93 159 l 93 838 l 0 838 l 0 1000 l 307 1000 l 307 159 l 401 159 l 401 0 l 0 0 z "},"m":{"ha":1170,"x_min":0,"x_max":1170,"o":"m 0 0 l 0 159 l 93 159 l 93 547 l 0 547 l 0 707 l 309 707 l 309 628 q 406 693 352 669 q 511 717 459 717 q 675 620 618 717 q 792 699 749 679 q 890 720 836 720 q 1024 666 974 720 q 1074 522 1074 612 l 1074 159 l 1170 159 l 1170 0 l 875 0 l 875 437 q 800 535 875 535 q 754 525 776 535 q 694 479 733 515 l 694 159 l 786 159 l 786 0 l 486 0 l 486 437 q 416 535 486 535 q 309 479 370 535 l 309 159 l 401 159 l 401 0 l 0 0 z "},"n":{"ha":800,"x_min":9,"x_max":795,"o":"m 9 0 l 410 0 l 410 159 l 315 159 l 315 479 q 427 526 370 526 q 494 444 494 526 l 494 0 l 795 0 l 795 159 l 700 159 l 700 505 q 650 661 700 605 q 513 717 600 717 q 315 628 410 717 l 315 707 l 9 707 l 9 547 l 102 547 l 102 159 l 9 159 l 9 0 z "},"o":{"ha":709,"x_min":5,"x_max":703,"o":"m 354 722 q 531 674 451 722 q 657 542 611 626 q 703 357 703 458 q 657 168 703 253 q 530 34 611 83 q 351 -14 450 -14 q 173 33 252 -14 q 50 162 94 79 q 5 349 5 245 q 52 539 5 454 q 177 673 98 625 q 354 722 257 722 m 354 549 q 353 549 353 549 q 257 499 291 549 q 224 360 224 450 q 264 199 224 249 q 357 159 298 159 q 456 211 425 159 q 484 345 484 258 q 450 497 484 444 q 354 549 417 549 z "},"p":{"ha":800,"x_min":5,"x_max":786,"o":"m 5 -282 l 410 -282 l 410 -124 l 315 -124 l 315 93 q 404 19 359 41 q 509 -3 448 -3 q 628 27 576 -3 q 716 108 681 57 q 769 223 751 159 q 786 356 786 288 q 754 534 786 450 q 657 671 722 619 q 503 722 593 722 q 398 699 443 722 q 313 620 354 675 l 313 707 l 5 707 l 5 547 l 99 547 l 99 -124 l 5 -124 l 5 -282 m 449 550 q 541 500 507 550 q 575 363 575 450 q 559 262 575 306 q 513 194 543 218 q 444 170 483 170 q 369 196 400 170 q 322 264 338 222 q 307 354 307 306 q 345 491 307 433 q 449 550 383 550 z "},"q":{"ha":800,"x_min":17,"x_max":795,"o":"m 484 99 l 484 -124 l 391 -124 l 391 -282 l 795 -282 l 795 -124 l 703 -124 l 703 547 l 795 547 l 795 707 l 489 707 l 489 620 q 398 697 441 675 q 293 720 354 720 q 150 673 214 720 q 52 544 87 627 q 17 354 17 460 q 52 168 17 249 q 153 42 87 86 q 302 -3 218 -3 q 410 21 367 -3 q 484 99 452 44 m 354 550 q 456 491 419 550 q 493 354 493 433 q 458 224 493 279 q 360 170 422 170 q 258 227 295 170 q 220 364 220 285 q 255 495 220 441 q 354 550 290 550 z "},"r":{"ha":555,"x_min":9,"x_max":550,"o":"m 9 0 l 9 159 l 102 159 l 102 547 l 9 547 l 9 707 l 299 707 l 299 562 q 360 663 331 629 q 433 710 390 696 q 550 725 476 724 l 550 510 q 444 496 475 506 q 379 458 413 487 q 331 372 346 425 q 327 358 330 369 q 321 321 324 347 q 317 260 318 296 q 315 159 315 224 l 444 159 l 444 0 l 9 0 z "},"s":{"ha":649,"x_min":14,"x_max":639,"o":"m 36 256 l 195 256 q 225 181 208 208 q 271 145 243 155 q 346 134 299 134 q 416 155 382 134 q 452 204 452 176 q 427 248 452 227 q 385 263 412 259 q 303 274 359 267 q 211 291 247 281 q 71 365 127 313 q 14 498 14 417 q 50 618 14 567 q 145 695 87 669 q 269 721 203 721 q 436 669 368 721 l 436 707 l 591 707 l 591 493 l 436 493 q 382 558 413 541 q 293 575 352 575 q 197 521 197 575 q 217 488 197 498 q 293 465 237 477 q 434 435 384 448 q 510 414 484 423 q 550 395 536 405 q 585 363 564 385 q 639 225 639 309 q 602 96 639 149 q 505 17 566 43 q 375 -10 446 -10 q 195 40 271 -10 l 195 -1 l 36 -1 l 36 256 z "},"t":{"ha":431,"x_min":3,"x_max":428,"o":"m 3 547 l 3 707 l 86 707 l 86 798 l 296 989 l 296 707 l 421 707 l 421 547 l 302 547 l 302 271 q 307 208 302 229 q 326 176 312 183 q 363 170 340 170 q 428 195 393 170 l 428 17 q 277 -17 349 -17 q 167 4 209 -17 q 106 71 125 26 q 86 189 86 115 l 86 547 l 3 547 z "},"u":{"ha":800,"x_min":9,"x_max":795,"o":"m 9 547 l 103 547 l 103 217 q 152 47 103 106 q 293 -12 200 -12 q 484 75 391 -12 l 484 0 l 795 0 l 795 159 l 700 159 l 700 707 l 391 707 l 391 547 l 484 547 l 484 228 q 376 178 432 178 q 321 204 338 178 q 304 293 304 231 l 304 707 l 9 707 l 9 547 z "},"v":{"ha":768,"x_min":-5,"x_max":779,"o":"m -5 547 l 78 547 l 290 0 l 484 0 l 694 547 l 779 547 l 779 707 l 446 707 l 446 547 l 524 547 l 404 189 l 299 547 l 375 547 l 375 707 l -5 707 l -5 547 z "},"w":{"ha":1138,"x_min":-3,"x_max":1146,"o":"m -3 547 l 81 547 l 250 0 l 457 0 l 579 486 l 692 0 l 893 0 l 1060 547 l 1146 547 l 1146 707 l 827 707 l 827 547 l 902 547 l 823 236 l 706 707 l 489 707 l 366 236 l 293 547 l 366 547 l 366 707 l -3 707 l -3 547 z "},"x":{"ha":742,"x_min":8,"x_max":730,"o":"m 8 0 l 212 0 l 363 212 l 513 0 l 730 0 l 730 159 l 656 159 l 489 363 l 656 547 l 730 547 l 730 707 l 521 707 l 376 507 l 248 707 l 8 707 l 8 547 l 93 547 l 241 345 l 83 159 l 8 159 l 8 0 z "},"y":{"ha":768,"x_min":0,"x_max":774,"o":"m 0 547 l 0 707 l 370 707 l 370 547 l 302 547 l 410 228 l 527 547 l 452 547 l 452 707 l 774 707 l 774 547 l 686 547 l 375 -282 l 122 -282 l 122 -124 l 265 -124 l 318 5 l 83 547 l 0 547 z "},"z":{"ha":649,"x_min":3,"x_max":648,"o":"m 3 0 l 648 0 l 648 245 l 503 245 l 503 138 l 245 138 l 648 562 l 648 707 l 35 707 l 35 468 l 175 468 l 175 570 l 405 570 l 3 147 l 3 0 z "},"„":{"ha":524,"x_min":12,"x_max":509,"o":"m 12 -242 q 116 -230 83 -240 q 184 -192 150 -220 q 229 -107 216 -156 q 242 29 242 -58 l 242 239 l 17 239 l 17 0 l 114 0 q 12 -138 114 -134 l 12 -242 m 282 -239 l 319 -239 q 466 -160 422 -239 q 509 29 509 -81 l 509 239 l 282 239 l 282 0 l 385 0 q 374 -80 382 -54 q 346 -117 366 -105 q 282 -135 326 -129 l 282 -239 z "},"†":{"ha":675,"x_min":8,"x_max":667,"o":"m 8 595 l 151 595 q 228 623 205 616 q 290 633 252 630 q 260 518 281 572 l 247 488 l 247 319 q 284 28 274 129 q 299 -242 293 -73 l 385 -242 q 393 -70 387 -151 q 413 124 400 12 q 433 319 425 237 l 433 488 q 404 553 410 539 q 395 583 399 567 q 391 633 392 600 q 446 623 422 630 q 524 595 469 616 l 667 595 l 667 755 l 524 755 q 458 726 480 732 q 391 715 435 719 q 404 782 397 760 q 433 852 411 803 l 433 1068 l 247 1068 l 247 852 l 256 835 q 281 777 274 800 q 290 715 288 755 q 220 722 243 715 q 151 755 197 728 l 8 755 l 8 595 z "},"ˆ":{"ha":151,"x_min":-207,"x_max":204,"o":"m -207 786 l -58 786 l 0 907 l 58 786 l 204 786 l 61 1021 l -64 1021 l -207 786 z "},"‰":{"ha":1138,"x_min":3,"x_max":1135,"o":"m 180 1027 q 52 955 100 1027 q 3 763 3 884 q 47 554 3 627 q 175 482 92 482 q 311 556 261 482 q 360 757 360 630 q 313 956 360 885 q 180 1027 267 1027 m 86 -3 l 155 -41 l 327 313 l 669 1013 l 591 1050 l 424 699 l 86 -3 m 184 921 q 232 760 232 921 q 218 634 232 680 q 180 589 205 589 q 136 742 136 589 q 184 921 136 921 m 570 521 q 472 487 514 521 q 408 390 430 452 q 385 245 385 328 q 429 45 385 113 q 559 -22 474 -22 q 742 239 721 -22 q 696 448 742 375 q 570 521 650 521 m 567 417 q 611 248 611 417 q 598 125 611 170 q 564 81 586 81 q 518 231 518 81 q 567 417 518 417 m 951 521 q 856 487 897 521 q 793 389 815 452 q 771 239 771 324 q 817 44 771 111 q 949 -22 862 -22 q 1086 45 1038 -22 q 1135 239 1135 112 q 1112 389 1135 325 q 1048 487 1089 452 q 951 521 1006 521 m 951 417 q 1001 248 1001 417 q 990 120 1001 159 q 951 81 979 81 q 914 114 924 81 q 904 242 904 147 q 951 417 904 417 z "},"‹":{"ha":431,"x_min":-12,"x_max":439,"o":"m -12 371 l 237 32 l 439 32 l 201 363 l 439 713 l 237 713 l -12 371 z "},"Œ":{"ha":1325,"x_min":5,"x_max":1325,"o":"m 1325 0 l 1325 325 l 1141 325 l 1141 163 l 864 163 l 864 435 l 1099 435 l 1099 594 l 864 594 l 864 843 l 1138 843 l 1138 682 l 1322 682 l 1322 1000 l 653 1000 q 559 1005 622 1000 q 460 1010 496 1010 q 275 975 358 1010 q 130 872 191 939 q 38 712 70 805 q 5 505 5 619 q 39 280 5 376 q 142 118 72 185 q 299 22 213 46 q 500 -3 385 -3 q 576 -1 525 -3 q 653 0 627 0 l 1325 0 m 623 163 q 532 159 547 159 q 391 201 451 159 q 300 322 332 243 q 269 510 269 401 q 299 690 269 614 q 387 806 330 766 q 524 846 445 846 q 623 840 547 846 l 623 163 z "},"‘":{"ha":245,"x_min":8,"x_max":237,"o":"m 8 524 l 237 524 l 237 768 l 136 768 q 155 872 136 847 q 237 901 175 897 l 237 1010 q 64 950 120 1006 q 8 781 8 895 l 8 524 z "},"’":{"ha":245,"x_min":8,"x_max":237,"o":"m 8 526 l 29 526 q 188 588 138 526 q 237 783 237 649 l 237 1010 l 8 1010 l 8 766 l 111 766 q 89 669 111 703 q 8 628 66 636 l 8 526 z "},"“":{"ha":524,"x_min":14,"x_max":509,"o":"m 14 524 l 242 524 l 242 768 l 139 768 q 148 846 139 820 q 178 885 156 873 q 242 901 199 897 l 242 1010 q 140 999 169 1008 q 87 964 111 991 q 14 763 14 907 l 14 524 m 282 524 l 509 524 l 509 768 l 407 768 q 418 848 410 825 q 444 883 425 873 q 509 901 463 894 l 509 1010 q 404 997 436 1006 q 349 961 372 987 q 282 750 282 897 l 282 524 z "},"”":{"ha":524,"x_min":12,"x_max":509,"o":"m 12 524 q 139 548 101 532 q 204 603 178 564 q 242 806 242 661 l 242 1007 l 17 1007 l 17 768 l 114 768 q 119 738 119 753 q 87 665 119 696 q 12 625 55 633 l 12 524 m 282 530 l 319 530 q 466 608 422 530 q 509 798 509 686 l 509 1007 l 282 1007 l 282 768 l 385 768 q 363 666 383 693 q 282 633 342 640 l 282 530 z "},"–":{"ha":768,"x_min":5,"x_max":764,"o":"m 5 277 l 70 277 l 764 277 l 764 468 l 703 468 l 5 468 l 5 277 z "},"—":{"ha":768,"x_min":5,"x_max":764,"o":"m 5 277 l 70 277 l 764 277 l 764 468 l 703 468 l 5 468 l 5 277 z "},"˜":{"ha":151,"x_min":-288,"x_max":245,"o":"m -288 895 l -207 792 l -199 798 q -98 836 -144 836 q -64 831 -79 836 l -12 817 q 85 804 37 804 q 245 873 186 804 l 168 983 q 66 939 112 939 q -14 956 34 939 q -109 978 -61 978 q -288 895 -201 978 z "},"›":{"ha":431,"x_min":-11,"x_max":442,"o":"m -11 29 l 178 29 l 442 371 l 180 707 l -5 707 l 233 363 l -11 29 z "},"œ":{"ha":1170,"x_min":3,"x_max":1170,"o":"m 582 70 q 705 9 637 31 q 840 -13 773 -13 q 1031 37 945 -13 q 1160 184 1117 87 l 992 236 q 926 168 960 189 q 846 146 892 146 q 767 166 802 146 q 713 224 733 186 q 689 313 693 261 l 1170 313 l 1170 354 q 1147 510 1170 440 q 1079 630 1124 580 q 972 705 1035 680 q 832 730 911 730 q 709 711 758 730 q 588 633 661 692 q 502 691 537 672 q 434 718 467 711 q 354 725 401 725 q 174 677 254 725 q 48 543 94 628 q 3 351 3 458 q 47 165 3 248 q 168 35 90 82 q 343 -12 245 -12 q 465 8 408 -12 q 582 70 523 27 m 349 555 q 446 501 410 555 q 482 351 482 447 q 447 210 482 260 q 349 161 412 161 q 221 351 221 161 q 255 501 221 446 q 349 555 288 555 m 692 435 q 734 536 698 499 q 827 572 770 572 q 916 536 882 572 q 954 435 950 499 l 692 435 z "}," ":{"ha":151,"x_min":0,"x_max":0,"o":""},"¡":{"ha":307,"x_min":29,"x_max":257,"o":"m 29 0 l 250 0 l 248 258 l 201 650 l 90 650 l 29 242 l 29 0 m 35 766 l 257 766 l 257 1007 l 35 1007 l 35 766 z "},"¢":{"ha":709,"x_min":14,"x_max":709,"o":"m 327 -3 l 327 -118 l 407 -118 l 407 -3 q 532 26 481 5 q 623 90 583 47 q 709 207 664 132 l 550 282 l 538 260 q 470 188 503 210 q 391 167 437 167 q 269 223 312 167 q 226 356 226 279 q 269 490 226 433 q 388 547 312 547 q 535 422 502 547 l 686 422 l 686 701 l 550 701 l 550 642 q 484 688 510 675 q 407 713 457 701 l 407 820 l 327 820 l 327 713 q 165 652 236 703 q 54 521 94 602 q 14 346 14 440 q 55 180 14 254 q 166 61 96 107 q 327 -3 237 15 z "},"£":{"ha":742,"x_min":3,"x_max":745,"o":"m 745 304 l 653 317 l 652 282 q 547 156 646 156 q 484 165 511 156 q 424 201 457 176 l 410 208 q 433 336 433 283 q 429 389 433 364 l 427 428 l 427 437 l 588 437 l 588 566 l 393 566 q 357 645 383 594 q 318 732 331 696 q 304 806 304 768 q 410 910 304 910 q 494 873 465 910 q 530 755 524 836 l 706 775 q 689 870 702 834 q 649 938 677 906 q 545 1012 609 987 q 406 1038 480 1038 q 259 1010 328 1038 q 148 926 191 982 q 106 795 106 871 q 172 581 106 713 l 180 566 l 39 566 l 39 437 l 245 437 q 267 370 259 409 q 274 299 274 331 q 170 323 222 323 q 51 280 98 323 q 3 156 3 237 q 48 34 3 79 q 168 -12 94 -12 q 260 8 224 -12 q 340 81 297 27 l 368 60 q 464 -2 424 15 q 555 -20 504 -20 q 745 245 745 -20 l 745 304 m 248 178 q 165 96 233 96 q 119 115 136 96 q 102 167 102 134 q 144 222 102 222 q 198 208 168 222 q 248 178 229 193 z "},"§":{"ha":675,"x_min":3,"x_max":681,"o":"m 253 -62 l 39 -62 l 39 -87 q 80 -227 39 -169 q 188 -313 121 -284 q 332 -342 255 -342 q 448 -325 392 -342 q 550 -273 505 -307 q 622 -189 595 -239 q 648 -75 648 -139 q 600 68 648 6 l 591 81 q 583 90 585 87 q 644 175 624 142 q 673 239 665 208 q 681 315 681 271 q 643 459 681 397 q 524 570 605 520 l 399 642 q 297 720 329 683 q 265 798 265 756 q 291 867 265 840 q 354 895 317 895 q 419 862 399 895 q 446 747 439 829 l 637 747 l 637 755 q 612 869 637 818 q 547 955 588 920 q 451 1008 505 989 q 338 1027 397 1027 q 185 995 252 1027 q 82 907 119 963 q 45 778 45 850 q 62 695 45 733 q 119 612 79 658 q 27 497 52 546 q 3 383 3 449 q 30 273 3 321 q 99 188 56 224 q 178 132 142 152 q 307 62 213 112 q 406 -11 377 22 q 434 -87 434 -44 q 410 -171 434 -141 q 340 -200 386 -200 q 253 -62 253 -200 m 446 212 q 221 349 290 289 q 193 407 193 376 q 245 498 193 448 q 306 465 272 484 q 357 435 340 444 q 450 366 410 406 q 491 286 491 327 q 446 212 491 244 z "},"¨":{"ha":151,"x_min":-245,"x_max":250,"o":"m -139 1004 q -216 970 -189 1004 q -245 892 -245 936 q -218 815 -245 847 q -142 783 -191 783 q -61 817 -91 783 q -32 895 -32 850 q -60 972 -32 940 q -139 1004 -88 1004 m 146 1003 q 67 968 96 1003 q 37 889 37 934 q 65 811 37 844 q 143 778 94 778 q 222 812 193 778 q 250 893 250 846 q 223 970 250 938 q 146 1003 196 1003 z "},"«":{"ha":709,"x_min":-12,"x_max":720,"o":"m -12 372 l 227 29 l 431 29 l 194 375 l 433 707 l 232 707 l -12 372 m 273 363 l 503 29 l 715 29 l 479 372 l 720 707 l 521 707 l 273 363 z "},"´":{"ha":151,"x_min":-111,"x_max":232,"o":"m -111 792 l 25 792 l 232 1024 l 36 1024 l -111 792 z "},"¶":{"ha":768,"x_min":47,"x_max":753,"o":"m 354 -302 l 388 -302 l 388 258 l 388 961 l 535 961 l 535 403 l 535 -302 l 570 -302 l 570 258 l 570 961 l 753 961 l 753 1000 l 363 1000 q 212 976 283 1000 q 94 897 140 951 q 47 760 47 842 q 89 625 47 678 q 199 548 130 572 q 354 524 269 524 l 354 403 l 354 -302 z "},"·":{"ha":307,"x_min":33,"x_max":273,"o":"m 151 628 q 64 591 96 628 q 33 502 33 553 q 64 415 33 452 q 149 378 94 378 q 239 416 207 378 q 273 505 273 454 q 240 591 273 555 q 151 628 208 628 z "},"¸":{"ha":151,"x_min":-199,"x_max":192,"o":"m -199 -233 q 22 -334 -106 -334 q 106 -314 67 -334 q 169 -260 145 -294 q 192 -189 192 -227 q 170 -119 192 -147 q 111 -77 147 -90 q 37 -62 75 -62 l 70 25 l -45 25 l -102 -121 l -86 -132 q -41 -124 -68 -124 q 25 -141 -4 -124 q 54 -189 54 -157 q 36 -226 54 -212 q -12 -239 19 -239 q -61 -230 -37 -239 q -139 -186 -85 -220 l -199 -233 z "},"»":{"ha":709,"x_min":-12,"x_max":720,"o":"m -12 29 l 189 29 l 436 372 l 210 707 l -3 707 l 235 363 l -12 29 m 276 29 l 476 29 l 720 363 l 482 707 l 281 707 l 521 360 l 276 29 z "},"¿":{"ha":675,"x_min":9,"x_max":686,"o":"m 686 296 l 484 296 q 451 173 478 207 q 360 140 425 140 q 262 175 296 140 q 227 271 227 211 q 266 368 227 332 q 361 404 305 404 q 424 392 393 404 l 444 383 l 439 665 l 327 665 l 311 570 q 181 548 226 561 q 103 505 137 534 q 34 414 59 472 q 9 290 9 357 q 32 163 9 220 q 98 68 54 106 q 204 9 141 30 q 346 -12 267 -12 q 510 19 434 -12 q 631 101 585 48 q 673 182 660 140 q 686 296 684 224 m 274 781 l 498 781 l 497 1021 l 274 1021 l 274 781 z "},"À":{"ha":1080,"x_min":9,"x_max":1071,"o":"m 9 0 l 465 0 l 465 161 l 351 161 l 401 342 l 689 342 l 730 161 l 614 161 l 614 0 l 1071 0 l 1071 161 l 979 161 l 768 835 l 888 835 l 888 1000 l 204 1000 l 204 835 l 327 835 l 103 161 l 9 161 l 9 0 m 442 479 l 547 865 l 649 479 l 442 479 m 318 1265 l 526 1034 l 659 1034 l 521 1265 l 318 1265 z "},"Á":{"ha":1080,"x_min":9,"x_max":1071,"o":"m 9 0 l 465 0 l 465 161 l 351 161 l 401 342 l 689 342 l 730 161 l 614 161 l 614 0 l 1071 0 l 1071 161 l 979 161 l 768 835 l 888 835 l 888 1000 l 204 1000 l 204 835 l 327 835 l 103 161 l 9 161 l 9 0 m 442 479 l 547 865 l 649 479 l 442 479 m 416 1034 l 550 1034 l 758 1268 l 564 1268 l 416 1034 z "},"Â":{"ha":1080,"x_min":9,"x_max":1071,"o":"m 9 0 l 465 0 l 465 161 l 351 161 l 401 342 l 689 342 l 730 161 l 614 161 l 614 0 l 1071 0 l 1071 161 l 979 161 l 768 835 l 888 835 l 888 1000 l 204 1000 l 204 835 l 327 835 l 103 161 l 9 161 l 9 0 m 442 479 l 547 865 l 649 479 l 442 479 m 318 1032 l 468 1032 l 526 1153 l 585 1032 l 730 1032 l 588 1265 l 463 1265 l 318 1032 z "},"Ã":{"ha":1080,"x_min":9,"x_max":1071,"o":"m 9 0 l 465 0 l 465 161 l 351 161 l 401 342 l 689 342 l 730 161 l 614 161 l 614 0 l 1071 0 l 1071 161 l 979 161 l 768 835 l 888 835 l 888 1000 l 204 1000 l 204 835 l 327 835 l 103 161 l 9 161 l 9 0 m 442 479 l 547 865 l 649 479 l 442 479 m 239 1137 l 318 1034 l 327 1039 q 428 1076 376 1076 q 463 1074 437 1076 l 515 1060 q 610 1046 570 1046 q 774 1118 711 1046 l 697 1225 q 593 1182 646 1182 q 513 1200 557 1182 q 421 1219 470 1219 q 239 1137 322 1219 z "},"Ä":{"ha":1080,"x_min":9,"x_max":1071,"o":"m 9 0 l 465 0 l 465 161 l 351 161 l 401 342 l 689 342 l 730 161 l 614 161 l 614 0 l 1071 0 l 1071 161 l 979 161 l 768 835 l 888 835 l 888 1000 l 204 1000 l 204 835 l 327 835 l 103 161 l 9 161 l 9 0 m 442 479 l 547 865 l 649 479 l 442 479 m 385 1249 q 307 1214 335 1249 q 278 1135 278 1180 q 305 1059 278 1090 q 382 1027 332 1027 q 461 1060 433 1027 q 490 1139 490 1093 q 478 1192 490 1167 q 443 1233 467 1217 q 385 1249 418 1249 m 672 1246 q 595 1212 623 1246 q 567 1133 567 1179 q 595 1056 567 1088 q 672 1024 623 1024 q 752 1056 724 1024 q 781 1133 781 1088 q 752 1212 781 1178 q 672 1246 723 1246 z "},"Å":{"ha":1080,"x_min":9,"x_max":1071,"o":"m 9 0 l 465 0 l 465 161 l 351 161 l 401 342 l 689 342 l 730 161 l 614 161 l 614 0 l 1071 0 l 1071 161 l 979 161 l 768 835 l 888 835 l 888 1000 l 204 1000 l 204 835 l 327 835 l 103 161 l 9 161 l 9 0 m 442 479 l 547 865 l 649 479 l 442 479 m 547 1274 q 444 1229 481 1274 q 407 1124 407 1184 q 444 1017 407 1062 q 547 972 480 972 q 652 1017 615 972 q 689 1122 689 1061 q 673 1196 689 1162 q 624 1252 656 1231 q 547 1274 592 1274 m 547 1186 q 592 1168 576 1186 q 607 1124 607 1150 q 590 1076 607 1097 q 545 1056 573 1056 q 501 1076 517 1056 q 485 1122 485 1095 q 502 1167 485 1149 q 547 1186 518 1186 z "},"Æ":{"ha":1325,"x_min":-5,"x_max":1325,"o":"m -5 0 l 407 0 l 407 161 l 299 161 l 401 428 l 628 428 l 628 161 l 521 161 l 521 0 l 631 0 l 1325 0 l 1325 319 l 1141 319 l 1141 158 l 864 158 l 864 428 l 1097 428 l 1097 587 l 864 587 l 864 838 l 1138 838 l 1138 679 l 1320 680 l 1320 1000 l 925 1000 l 232 1000 l 232 835 l 368 835 l 90 161 l -5 161 l -5 0 m 457 572 l 570 846 l 628 846 l 628 572 l 457 572 z "},"Ç":{"ha":987,"x_min":12,"x_max":992,"o":"m 431 -14 l 391 -121 l 410 -132 q 450 -127 425 -127 q 518 -143 489 -127 q 548 -189 548 -159 q 530 -226 548 -212 q 482 -239 513 -239 q 433 -230 455 -239 q 354 -186 410 -220 l 296 -233 q 518 -334 386 -334 q 600 -314 562 -334 q 661 -260 638 -294 q 684 -189 684 -227 q 663 -119 684 -147 q 608 -77 642 -90 q 535 -62 574 -62 l 548 -22 q 707 7 635 -19 q 837 78 780 32 q 933 188 894 123 q 992 334 972 252 l 806 425 q 708 224 770 287 q 547 161 646 161 q 434 183 484 161 q 350 249 384 205 q 297 354 315 292 q 279 493 279 416 q 310 686 279 604 q 400 813 341 769 q 539 857 459 857 q 786 656 717 857 l 952 656 l 951 1007 l 798 1007 l 798 929 q 718 990 758 968 q 631 1023 678 1013 q 521 1034 584 1034 q 314 996 408 1034 q 152 888 220 959 q 48 720 84 818 q 12 505 12 622 q 61 254 12 363 q 205 75 111 144 q 431 -14 299 7 z "},"È":{"ha":832,"x_min":5,"x_max":823,"o":"m 5 0 l 128 0 l 823 0 l 823 319 l 642 319 l 642 158 l 365 158 l 365 428 l 597 428 l 597 589 l 365 589 l 365 838 l 642 838 l 642 679 l 823 680 l 823 1000 l 700 1000 l 5 1000 l 5 835 l 114 835 l 114 161 l 5 161 l 5 0 m 210 1265 l 418 1034 l 550 1034 l 413 1265 l 210 1265 z "},"É":{"ha":832,"x_min":5,"x_max":823,"o":"m 5 0 l 128 0 l 823 0 l 823 319 l 642 319 l 642 158 l 365 158 l 365 428 l 597 428 l 597 589 l 365 589 l 365 838 l 642 838 l 642 679 l 823 680 l 823 1000 l 700 1000 l 5 1000 l 5 835 l 114 835 l 114 161 l 5 161 l 5 0 m 307 1034 l 442 1034 l 649 1268 l 454 1268 l 307 1034 z "},"Ê":{"ha":832,"x_min":5,"x_max":823,"o":"m 5 0 l 128 0 l 823 0 l 823 319 l 642 319 l 642 158 l 365 158 l 365 428 l 597 428 l 597 589 l 365 589 l 365 838 l 642 838 l 642 679 l 823 680 l 823 1000 l 700 1000 l 5 1000 l 5 835 l 114 835 l 114 161 l 5 161 l 5 0 m 210 1032 l 360 1032 l 418 1153 l 477 1032 l 623 1032 l 479 1265 l 354 1265 l 210 1032 z "},"Ë":{"ha":832,"x_min":5,"x_max":823,"o":"m 5 0 l 128 0 l 823 0 l 823 319 l 642 319 l 642 158 l 365 158 l 365 428 l 597 428 l 597 589 l 365 589 l 365 838 l 642 838 l 642 679 l 823 680 l 823 1000 l 700 1000 l 5 1000 l 5 835 l 114 835 l 114 161 l 5 161 l 5 0 m 277 1249 q 198 1214 227 1249 q 170 1135 170 1180 q 197 1059 170 1090 q 274 1027 224 1027 q 352 1060 324 1027 q 380 1139 380 1093 q 353 1216 380 1183 q 277 1249 326 1249 m 564 1246 q 486 1212 514 1246 q 457 1133 457 1178 q 486 1056 457 1088 q 564 1024 514 1024 q 643 1056 615 1024 q 671 1133 671 1088 q 642 1212 671 1179 q 564 1246 614 1246 z "},"Ì":{"ha":463,"x_min":-3,"x_max":468,"o":"m -3 0 l 468 0 l 468 161 l 357 161 l 357 835 l 468 835 l 468 1000 l -3 1000 l -3 835 l 106 835 l 106 161 l -3 161 l -3 0 m 25 1265 l 232 1034 l 366 1034 l 227 1265 l 25 1265 z "},"Í":{"ha":463,"x_min":-3,"x_max":468,"o":"m -3 0 l 468 0 l 468 161 l 357 161 l 357 835 l 468 835 l 468 1000 l -3 1000 l -3 835 l 106 835 l 106 161 l -3 161 l -3 0 m 119 1034 l 256 1034 l 463 1268 l 269 1268 l 119 1034 z "},"Î":{"ha":463,"x_min":-3,"x_max":468,"o":"m -3 0 l 468 0 l 468 161 l 357 161 l 357 835 l 468 835 l 468 1000 l -3 1000 l -3 835 l 106 835 l 106 161 l -3 161 l -3 0 m 25 1032 l 175 1032 l 232 1153 l 293 1032 l 439 1032 l 296 1265 l 168 1265 l 25 1032 z "},"Ï":{"ha":463,"x_min":-14,"x_max":485,"o":"m -3 0 l 468 0 l 468 161 l 357 161 l 357 835 l 468 835 l 468 1000 l -3 1000 l -3 835 l 106 835 l 106 161 l -3 161 l -3 0 m 93 1249 q 15 1214 44 1249 q -14 1135 -14 1179 q 14 1059 -14 1090 q 90 1027 41 1027 q 169 1060 141 1027 q 197 1139 197 1093 q 170 1216 197 1183 q 93 1249 143 1249 m 376 1246 q 300 1213 328 1246 q 272 1133 272 1179 q 300 1056 272 1088 q 376 1024 328 1024 q 456 1056 428 1024 q 485 1133 485 1088 q 456 1212 485 1178 q 376 1246 427 1246 z "},"Ñ":{"ha":1018,"x_min":3,"x_max":1021,"o":"m 3 0 l 3 161 l 111 161 l 111 835 l 3 835 l 3 1000 l 391 1000 l 742 331 l 742 835 l 636 835 l 636 1000 l 1021 1000 l 1021 835 l 910 835 l 910 0 l 686 0 l 279 774 l 279 161 l 385 161 l 385 0 l 3 0 m 227 1137 q 404 1221 304 1221 q 497 1200 450 1221 q 579 1181 542 1181 q 681 1225 629 1181 l 759 1118 q 595 1046 697 1046 q 497 1060 552 1046 q 413 1076 439 1076 q 304 1034 357 1076 l 227 1137 z "},"Ò":{"ha":1080,"x_min":11,"x_max":1065,"o":"m 539 1029 q 326 991 423 1029 q 158 880 229 952 q 49 710 87 809 q 11 493 11 611 q 48 281 11 377 q 154 116 85 185 q 320 9 223 47 q 532 -28 416 -28 q 750 9 652 -28 q 920 116 849 46 q 1028 285 990 186 q 1065 502 1065 383 q 1028 716 1065 618 q 921 884 991 814 q 754 992 851 954 q 539 1029 656 1029 m 542 849 q 648 824 600 849 q 730 753 696 799 q 782 642 764 707 q 800 498 800 578 q 783 353 800 418 q 733 243 766 288 q 653 174 700 197 q 545 150 606 150 q 398 200 460 150 q 306 332 337 250 q 275 503 275 413 q 305 672 275 593 q 397 800 336 751 q 542 849 457 849 m 332 1265 l 539 1034 l 672 1034 l 535 1265 l 332 1265 z "},"Ó":{"ha":1080,"x_min":11,"x_max":1065,"o":"m 539 1029 q 326 991 423 1029 q 158 880 229 952 q 49 710 87 809 q 11 493 11 611 q 48 281 11 377 q 154 116 85 185 q 320 9 223 47 q 532 -28 416 -28 q 750 9 652 -28 q 920 116 849 46 q 1028 285 990 186 q 1065 502 1065 383 q 1028 716 1065 618 q 921 884 991 814 q 754 992 851 954 q 539 1029 656 1029 m 542 849 q 648 824 600 849 q 730 753 696 799 q 782 642 764 707 q 800 498 800 578 q 783 353 800 418 q 733 243 766 288 q 653 174 700 197 q 545 150 606 150 q 398 200 460 150 q 306 332 337 250 q 275 503 275 413 q 305 672 275 593 q 397 800 336 751 q 542 849 457 849 m 428 1034 l 564 1034 l 771 1268 l 578 1268 l 428 1034 z "},"Ô":{"ha":1080,"x_min":11,"x_max":1065,"o":"m 539 1029 q 326 991 423 1029 q 158 880 229 952 q 49 710 87 809 q 11 493 11 611 q 48 281 11 377 q 154 116 85 185 q 320 9 223 47 q 532 -28 416 -28 q 750 9 652 -28 q 920 116 849 46 q 1028 285 990 186 q 1065 502 1065 383 q 1028 716 1065 618 q 921 884 991 814 q 754 992 851 954 q 539 1029 656 1029 m 542 849 q 648 824 600 849 q 730 753 696 799 q 782 642 764 707 q 800 498 800 578 q 783 353 800 418 q 733 243 766 288 q 653 174 700 197 q 545 150 606 150 q 398 200 460 150 q 306 332 337 250 q 275 503 275 413 q 305 672 275 593 q 397 800 336 751 q 542 849 457 849 m 332 1032 l 482 1032 l 539 1153 l 597 1032 l 747 1032 l 600 1265 l 477 1265 l 332 1032 z "},"Õ":{"ha":1080,"x_min":11,"x_max":1065,"o":"m 539 1029 q 326 990 423 1029 q 158 880 229 952 q 49 710 87 809 q 11 493 11 611 q 48 281 11 377 q 154 116 85 185 q 320 9 223 47 q 532 -28 416 -28 q 750 9 652 -28 q 920 116 849 46 q 1028 285 990 186 q 1065 502 1065 383 q 1028 716 1065 618 q 921 884 991 814 q 754 991 851 954 q 539 1029 656 1029 m 542 849 q 648 824 600 849 q 730 753 696 799 q 782 642 764 707 q 800 498 800 578 q 783 353 800 418 q 733 243 766 288 q 653 174 700 197 q 545 150 606 150 q 398 200 460 150 q 306 332 337 250 q 275 503 275 413 q 305 672 275 593 q 397 800 336 751 q 542 849 457 849 m 252 1137 l 332 1033 l 340 1039 q 442 1076 389 1076 q 477 1074 452 1076 l 530 1060 q 625 1044 581 1044 q 786 1118 726 1044 l 710 1225 q 607 1182 659 1182 q 526 1200 568 1182 q 435 1219 484 1219 q 252 1137 336 1219 z "},"Ö":{"ha":1080,"x_min":12,"x_max":1065,"o":"m 539 1029 q 326 991 423 1029 q 158 880 229 952 q 50 710 87 809 q 12 493 12 611 q 48 281 12 377 q 154 116 85 185 q 320 9 223 47 q 532 -28 416 -28 q 750 9 652 -28 q 920 116 849 46 q 1028 285 990 186 q 1065 502 1065 383 q 1028 716 1065 618 q 921 884 991 814 q 754 991 851 954 q 539 1029 656 1029 m 542 849 q 648 824 600 849 q 730 753 696 799 q 782 642 764 707 q 800 498 800 578 q 783 353 800 418 q 733 243 766 288 q 653 174 700 197 q 545 150 606 150 q 398 200 460 150 q 306 332 337 250 q 275 503 275 413 q 306 672 275 593 q 397 800 336 751 q 542 849 457 849 m 401 1249 q 322 1214 351 1249 q 293 1135 293 1180 q 320 1058 293 1090 q 399 1027 348 1027 q 476 1060 448 1027 q 505 1139 505 1093 q 477 1216 505 1183 q 401 1249 450 1249 m 686 1246 q 609 1212 637 1246 q 581 1133 581 1178 q 608 1056 581 1088 q 686 1024 636 1024 q 764 1056 736 1024 q 792 1133 792 1088 q 764 1212 792 1179 q 686 1246 736 1246 z "},"Ø":{"ha":1080,"x_min":11,"x_max":1065,"o":"m 890 1047 l 823 956 q 539 1029 691 1029 q 326 991 423 1029 q 158 881 229 952 q 50 711 88 810 q 11 496 11 612 q 53 271 11 368 q 183 87 94 174 l 119 5 l 189 -46 l 253 38 q 538 -28 365 -28 q 753 10 655 -28 q 921 117 850 47 q 1028 285 991 188 q 1065 498 1065 382 q 890 910 1065 762 l 957 1003 l 890 1047 m 327 285 q 280 511 280 384 q 307 678 280 602 q 393 802 334 754 q 539 849 451 849 q 697 786 633 849 l 327 285 m 379 214 l 753 717 q 800 489 800 620 q 773 323 800 400 q 688 198 746 245 q 545 150 631 150 q 458 164 495 150 q 379 214 420 178 z "},"Ù":{"ha":925,"x_min":5,"x_max":922,"o":"m 5 835 l 117 835 l 117 315 q 160 107 117 182 q 284 6 198 43 q 477 -32 370 -32 q 591 -18 537 -32 q 689 23 645 -4 q 762 87 733 50 q 798 178 787 123 q 808 319 808 232 l 808 835 l 922 835 l 922 1000 l 559 1000 l 559 835 l 648 835 l 648 322 q 635 217 648 255 q 591 163 622 179 q 509 147 562 147 q 422 163 453 147 q 378 217 391 179 q 366 322 366 255 l 366 835 l 454 835 l 454 1000 l 5 1000 l 5 835 m 256 1265 l 463 1034 l 596 1034 l 457 1265 l 256 1265 z "},"Ú":{"ha":925,"x_min":5,"x_max":922,"o":"m 5 835 l 117 835 l 117 315 q 160 107 117 182 q 284 6 198 43 q 477 -32 370 -32 q 591 -18 537 -32 q 689 23 645 -4 q 762 87 733 50 q 798 178 787 123 q 808 319 808 232 l 808 835 l 922 835 l 922 1000 l 559 1000 l 559 835 l 648 835 l 648 322 q 635 217 648 255 q 591 163 622 179 q 509 147 562 147 q 422 163 453 147 q 378 217 391 179 q 366 322 366 255 l 366 835 l 454 835 l 454 1000 l 5 1000 l 5 835 m 351 1034 l 486 1034 l 694 1268 l 500 1268 l 351 1034 z "},"Û":{"ha":925,"x_min":5,"x_max":922,"o":"m 5 835 l 117 835 l 117 315 q 160 107 117 182 q 284 6 198 43 q 477 -32 370 -32 q 591 -18 537 -32 q 689 23 645 -4 q 762 87 733 50 q 798 178 787 123 q 808 319 808 232 l 808 835 l 922 835 l 922 1000 l 559 1000 l 559 835 l 648 835 l 648 322 q 635 217 648 255 q 591 163 622 179 q 509 147 562 147 q 422 163 453 147 q 378 217 391 179 q 366 322 366 255 l 366 835 l 454 835 l 454 1000 l 5 1000 l 5 835 m 256 1032 l 407 1032 l 463 1153 l 524 1032 l 669 1032 l 526 1265 l 401 1265 l 256 1032 z "},"Ü":{"ha":925,"x_min":5,"x_max":922,"o":"m 5 835 l 117 835 l 117 315 q 160 107 117 182 q 284 6 198 43 q 477 -32 370 -32 q 591 -18 537 -32 q 689 23 645 -4 q 762 87 733 50 q 798 178 787 123 q 808 319 808 232 l 808 835 l 922 835 l 922 1000 l 559 1000 l 559 835 l 648 835 l 648 322 q 635 217 648 255 q 591 163 622 179 q 509 147 562 147 q 422 163 453 147 q 378 217 391 179 q 366 322 366 255 l 366 835 l 454 835 l 454 1000 l 5 1000 l 5 835 m 323 1249 q 245 1214 274 1249 q 216 1135 216 1179 q 243 1059 216 1090 q 321 1027 271 1027 q 400 1060 372 1027 q 429 1139 429 1093 q 417 1192 429 1167 q 381 1233 406 1217 q 323 1249 357 1249 m 608 1246 q 532 1212 559 1246 q 505 1133 505 1179 q 532 1057 505 1088 q 608 1024 559 1024 q 687 1056 659 1024 q 715 1133 715 1088 q 687 1212 715 1179 q 608 1246 659 1246 z "},"Ý":{"ha":925,"x_min":-3,"x_max":930,"o":"m -3 835 l 83 835 l 330 389 l 330 161 l 204 161 l 204 0 l 710 0 l 710 161 l 585 161 l 585 389 l 832 835 l 930 835 l 930 1000 l 547 1000 l 547 835 l 628 835 l 486 581 l 363 835 l 436 835 l 436 1000 l -3 1000 l -3 835 m 351 1034 l 486 1034 l 694 1268 l 500 1268 l 351 1034 z "},"ß":{"ha":768,"x_min":-3,"x_max":764,"o":"m -3 0 l 299 0 l 299 17 l 299 717 q 401 877 299 877 q 469 847 443 877 q 494 771 494 818 q 471 690 494 711 q 373 665 447 669 l 373 496 q 500 482 474 496 q 562 336 562 452 q 524 220 562 260 q 420 180 486 180 q 388 183 413 180 l 388 9 q 474 0 424 0 q 691 85 617 0 q 764 339 764 170 q 723 512 764 448 q 588 612 681 576 q 660 687 640 648 q 681 786 681 725 q 643 916 681 862 q 543 996 606 970 q 408 1023 481 1023 q 258 991 330 1023 q 141 901 186 960 q 96 760 96 841 l 96 648 l -3 648 l -3 486 l 96 486 l 96 163 l -3 163 l -3 0 z "},"à":{"ha":742,"x_min":12,"x_max":734,"o":"m 439 68 l 439 0 l 734 0 l 734 159 l 642 159 l 642 486 q 565 660 642 600 q 340 720 488 720 q 198 702 257 720 q 98 646 140 685 q 23 543 56 608 l 189 510 q 314 576 237 576 q 402 543 366 576 q 439 449 439 509 l 439 403 q 340 434 371 427 q 269 440 309 440 q 135 411 194 440 q 44 329 77 382 q 12 208 12 276 q 43 91 12 139 q 127 18 75 42 q 241 -7 180 -7 q 439 68 359 -7 m 437 200 q 302 132 366 132 q 242 156 262 132 q 221 214 221 180 q 245 283 221 253 q 313 313 271 313 q 362 303 340 313 q 437 262 385 294 l 437 200 m 163 1021 l 370 792 l 503 792 l 366 1021 l 163 1021 z "},"á":{"ha":742,"x_min":12,"x_max":734,"o":"m 439 68 l 439 0 l 734 0 l 734 159 l 642 159 l 642 486 q 565 660 642 600 q 340 720 488 720 q 198 702 257 720 q 98 646 140 685 q 23 543 56 608 l 189 510 q 314 576 237 576 q 402 543 366 576 q 439 449 439 509 l 439 403 q 340 434 371 427 q 269 440 309 440 q 135 411 194 440 q 44 329 77 382 q 12 208 12 276 q 43 91 12 139 q 127 18 75 42 q 241 -7 180 -7 q 439 68 359 -7 m 437 200 q 302 132 366 132 q 242 156 262 132 q 221 214 221 180 q 245 283 221 253 q 313 313 271 313 q 362 303 340 313 q 437 262 385 294 l 437 200 m 258 792 l 393 792 l 600 1024 l 410 1024 l 258 792 z "},"â":{"ha":742,"x_min":12,"x_max":734,"o":"m 439 68 l 439 0 l 734 0 l 734 159 l 642 159 l 642 486 q 565 660 642 600 q 340 720 488 720 q 198 702 257 720 q 98 646 140 685 q 23 543 56 608 l 189 510 q 314 576 237 576 q 402 543 366 576 q 439 449 439 509 l 439 403 q 340 434 371 427 q 269 440 309 440 q 135 411 194 440 q 44 329 77 382 q 12 208 12 276 q 43 91 12 139 q 127 18 75 42 q 241 -7 180 -7 q 439 68 359 -7 m 437 200 q 302 132 366 132 q 242 156 262 132 q 221 214 221 180 q 245 283 221 253 q 313 313 271 313 q 362 303 340 313 q 437 262 385 294 l 437 200 m 163 786 l 313 786 l 370 907 l 431 786 l 578 786 l 433 1021 l 309 1021 l 163 786 z "},"ã":{"ha":742,"x_min":12,"x_max":734,"o":"m 439 68 l 439 0 l 734 0 l 734 159 l 642 159 l 642 486 q 565 660 642 600 q 340 720 488 720 q 198 702 257 720 q 98 646 140 685 q 23 543 56 608 l 189 510 q 314 576 237 576 q 402 543 366 576 q 439 449 439 509 l 439 403 q 340 434 371 427 q 269 440 309 440 q 135 411 194 440 q 44 329 77 382 q 12 208 12 276 q 43 91 12 139 q 127 18 75 42 q 241 -7 180 -7 q 439 68 359 -7 m 437 200 q 302 132 366 132 q 242 156 262 132 q 221 214 221 180 q 245 283 221 253 q 313 313 271 313 q 362 303 340 313 q 437 262 385 294 l 437 200 m 87 895 l 163 792 l 172 798 q 275 836 229 836 q 309 831 296 836 l 360 817 q 458 804 417 804 q 617 873 559 804 l 542 983 q 486 945 506 955 q 442 935 466 935 q 357 956 418 935 q 261 978 308 978 q 87 895 168 978 z "},"ä":{"ha":742,"x_min":12,"x_max":734,"o":"m 439 68 l 439 0 l 734 0 l 734 159 l 642 159 l 642 486 q 565 660 642 600 q 340 720 488 720 q 198 702 257 720 q 98 646 140 685 q 22 543 56 608 l 189 510 q 314 576 237 576 q 402 543 366 576 q 439 449 439 509 l 439 403 q 340 434 371 427 q 269 440 309 440 q 135 411 194 440 q 44 329 77 382 q 12 208 12 276 q 43 91 12 139 q 127 18 75 42 q 241 -7 180 -7 q 439 68 359 -7 m 436 200 q 302 132 366 132 q 242 156 262 132 q 221 214 221 180 q 245 283 221 253 q 313 313 271 313 q 362 303 340 313 q 436 262 385 294 l 436 200 m 232 1004 q 152 970 181 1004 q 122 892 122 937 q 150 815 122 848 q 229 783 178 783 q 307 817 279 783 q 335 895 335 850 q 308 972 335 941 q 232 1004 281 1004 m 518 1003 q 440 969 469 1003 q 411 890 411 935 q 439 811 411 844 q 518 778 467 778 q 597 811 568 778 q 625 890 625 844 q 597 969 625 936 q 518 1003 568 1003 z "},"å":{"ha":742,"x_min":12,"x_max":734,"o":"m 439 68 l 439 0 l 734 0 l 734 159 l 642 159 l 642 486 q 565 660 642 600 q 340 720 488 720 q 198 702 257 720 q 98 646 140 685 q 23 543 56 608 l 189 510 q 314 576 237 576 q 402 543 366 576 q 439 449 439 509 l 439 403 q 340 434 371 427 q 269 440 309 440 q 135 411 194 440 q 44 329 77 382 q 12 208 12 276 q 43 91 12 139 q 127 18 75 42 q 241 -7 180 -7 q 439 68 359 -7 m 437 200 q 302 132 366 132 q 242 156 262 132 q 221 214 221 180 q 245 283 221 253 q 313 313 271 313 q 362 303 340 313 q 437 262 385 294 l 437 200 m 391 1032 q 287 987 325 1032 q 249 881 249 941 q 287 773 249 818 q 391 728 324 728 q 469 749 437 728 q 519 805 502 770 q 535 881 535 840 q 519 955 535 920 q 469 1010 503 989 q 391 1032 437 1032 m 391 943 q 437 925 421 943 q 453 882 453 907 q 435 835 453 855 q 388 814 418 814 q 345 833 361 814 q 330 878 330 852 q 346 924 330 904 q 391 943 363 943 z "},"æ":{"ha":1112,"x_min":3,"x_max":1107,"o":"m 506 99 q 589 37 542 63 q 689 -2 635 12 q 795 -16 743 -16 q 979 34 897 -16 q 1099 178 1062 82 l 938 228 q 871 162 903 180 q 789 144 840 144 q 677 191 718 144 q 631 322 635 237 l 1107 322 q 1097 446 1105 399 q 1065 535 1088 492 q 994 637 1040 595 q 893 701 949 680 q 775 722 836 722 q 559 648 654 722 q 444 705 512 684 q 304 725 377 725 q 122 683 203 725 q 9 555 41 640 l 172 513 q 227 569 203 555 q 296 583 252 583 q 431 397 431 583 q 265 450 359 450 q 137 421 197 450 q 40 338 77 393 q 3 212 3 283 q 20 119 3 161 q 69 48 37 78 q 145 2 101 18 q 242 -14 190 -14 q 327 -4 289 -14 q 405 30 364 6 q 506 99 446 54 m 428 195 q 363 144 391 159 q 304 130 336 130 q 236 157 260 130 q 212 221 212 184 q 237 290 212 260 q 307 319 262 319 q 361 308 335 319 q 428 262 387 296 l 428 195 m 637 440 q 674 543 641 507 q 767 578 708 578 q 891 440 878 578 l 637 440 z "},"ç":{"ha":709,"x_min":9,"x_max":710,"o":"m 299 -3 l 250 -121 l 269 -132 q 311 -125 289 -125 q 380 -141 351 -125 q 410 -189 410 -157 q 391 -223 410 -210 q 343 -236 372 -236 q 294 -228 316 -236 q 213 -186 271 -220 l 152 -233 q 375 -334 245 -334 q 460 -314 420 -334 q 522 -260 499 -294 q 545 -189 545 -227 q 499 -94 545 -126 q 391 -62 454 -62 l 413 -12 q 710 220 641 6 l 539 296 q 473 198 508 227 q 382 170 437 170 q 272 222 311 170 q 233 347 233 275 q 251 441 233 397 q 306 513 269 486 q 393 541 342 541 q 488 512 451 541 q 550 422 526 483 l 698 422 l 697 715 l 547 715 l 547 659 q 455 709 496 695 q 354 722 414 722 q 177 676 256 722 q 53 547 98 629 q 9 363 9 465 q 29 234 9 295 q 87 124 50 172 q 179 44 125 77 q 299 -3 233 12 z "},"è":{"ha":709,"x_min":11,"x_max":697,"o":"m 692 175 l 515 231 q 452 161 484 181 q 372 140 420 140 q 298 160 331 140 q 243 218 264 180 q 215 307 222 256 l 697 307 l 697 349 q 673 505 697 435 q 606 624 650 574 q 499 699 562 673 q 363 725 437 725 q 181 676 261 725 q 56 541 101 628 q 11 345 11 454 q 36 195 11 262 q 107 80 60 128 q 220 7 154 32 q 366 -20 286 -20 q 565 28 483 -20 q 692 175 646 77 m 220 431 q 261 530 225 492 q 351 567 296 567 q 441 530 407 567 q 482 431 476 493 l 220 431 m 146 1021 l 354 792 l 486 792 l 346 1021 l 146 1021 z "},"é":{"ha":709,"x_min":11,"x_max":697,"o":"m 692 175 l 515 231 q 452 161 484 181 q 372 140 420 140 q 298 160 331 140 q 243 218 264 180 q 215 307 222 256 l 697 307 l 697 349 q 673 505 697 435 q 606 624 650 574 q 499 699 562 673 q 363 725 437 725 q 181 676 261 725 q 56 541 101 628 q 11 345 11 454 q 36 195 11 262 q 107 80 60 128 q 220 7 154 32 q 366 -20 286 -20 q 565 28 483 -20 q 692 175 646 77 m 220 431 q 261 530 225 492 q 351 567 296 567 q 441 530 407 567 q 482 431 476 493 l 220 431 m 239 792 l 376 792 l 585 1024 l 391 1024 l 239 792 z "},"ê":{"ha":709,"x_min":11,"x_max":697,"o":"m 692 175 l 515 231 q 452 161 484 181 q 372 140 420 140 q 298 160 331 140 q 243 218 264 180 q 215 307 222 256 l 697 307 l 697 349 q 673 505 697 435 q 606 624 650 574 q 499 699 562 673 q 363 725 437 725 q 181 676 261 725 q 56 541 101 628 q 11 345 11 454 q 36 195 11 262 q 107 80 60 128 q 220 7 154 32 q 366 -20 286 -20 q 565 28 483 -20 q 692 175 646 77 m 220 431 q 261 530 225 492 q 351 567 296 567 q 441 530 407 567 q 482 431 476 493 l 220 431 m 146 786 l 296 786 l 354 907 l 413 786 l 559 786 l 416 1021 l 290 1021 l 146 786 z "},"ë":{"ha":709,"x_min":12,"x_max":697,"o":"m 692 175 l 515 231 q 452 161 484 181 q 372 140 420 140 q 298 160 331 140 q 243 218 264 180 q 216 307 222 256 l 697 307 l 697 349 q 673 505 697 435 q 606 624 650 574 q 499 699 562 673 q 363 725 437 725 q 181 676 261 725 q 56 541 101 628 q 12 345 12 454 q 36 195 12 262 q 107 80 60 128 q 220 7 154 32 q 366 -20 286 -20 q 565 28 483 -20 q 692 175 646 77 m 221 431 q 261 530 226 492 q 351 567 296 567 q 441 530 407 567 q 482 431 476 493 l 221 431 m 213 1004 q 135 970 164 1004 q 106 892 106 937 q 133 816 106 848 q 210 783 161 783 q 289 817 260 783 q 317 895 317 850 q 290 972 317 941 q 213 1004 262 1004 m 500 1003 q 421 968 450 1003 q 391 889 391 934 q 419 811 391 844 q 497 778 448 778 q 576 812 548 778 q 604 893 604 847 q 577 970 604 937 q 500 1003 550 1003 z "},"ì":{"ha":399,"x_min":-5,"x_max":401,"o":"m 0 547 l 103 547 l 103 159 l 3 159 l 3 0 l 401 0 l 401 159 l 309 159 l 309 707 l 0 707 l 0 547 m -5 1021 l 201 792 l 335 792 l 195 1021 l -5 1021 z "},"í":{"ha":399,"x_min":0,"x_max":433,"o":"m 0 547 l 103 547 l 103 159 l 3 159 l 3 0 l 401 0 l 401 159 l 309 159 l 309 707 l 0 707 l 0 547 m 87 792 l 227 792 l 433 1024 l 239 1024 l 87 792 z "},"î":{"ha":399,"x_min":-5,"x_max":407,"o":"m 0 547 l 103 547 l 103 159 l 3 159 l 3 0 l 401 0 l 401 159 l 309 158 l 309 707 l 0 707 l 0 547 m -5 786 l 142 786 l 201 907 l 257 786 l 407 786 l 260 1021 l 136 1021 l -5 786 z "},"ï":{"ha":399,"x_min":-43,"x_max":452,"o":"m 0 547 l 103 547 l 103 159 l 3 159 l 3 0 l 401 0 l 401 159 l 309 158 l 309 707 l 0 707 l 0 547 m 61 1004 q -16 970 12 1004 q -43 892 -43 937 q -17 816 -43 848 q 58 783 10 783 q 136 817 108 783 q 164 895 164 850 q 137 972 164 940 q 61 1004 109 1004 m 349 1003 q 269 968 298 1003 q 239 889 239 934 q 268 811 239 844 q 346 778 296 778 q 424 812 396 778 q 452 893 452 846 q 425 970 452 938 q 349 1003 397 1003 z "},"ñ":{"ha":800,"x_min":9,"x_max":795,"o":"m 9 0 l 9 159 l 101 159 l 101 547 l 9 547 l 9 707 l 315 707 l 315 628 q 513 717 410 717 q 650 661 600 717 q 700 505 700 605 l 700 159 l 795 159 l 795 0 l 494 0 l 494 444 q 427 526 494 526 q 315 479 370 526 l 315 159 l 410 159 l 410 0 l 9 0 m 114 895 q 292 979 204 979 q 385 956 335 979 q 469 938 438 938 q 572 983 519 938 l 649 873 q 485 806 587 806 q 388 817 441 806 q 306 836 318 836 q 195 792 256 836 l 114 895 z "},"ò":{"ha":709,"x_min":5,"x_max":703,"o":"m 354 722 q 177 673 257 722 q 52 539 98 625 q 5 349 5 454 q 50 162 5 245 q 173 33 94 79 q 351 -14 252 -14 q 530 34 450 -14 q 657 168 611 83 q 703 357 703 253 q 657 542 703 458 q 531 674 611 626 q 354 722 451 722 m 354 550 q 450 497 417 550 q 484 345 484 444 q 357 159 484 159 q 224 360 224 159 q 258 500 224 450 q 354 550 292 550 m 146 1021 l 354 792 l 486 792 l 346 1021 l 146 1021 z "},"ó":{"ha":709,"x_min":5,"x_max":703,"o":"m 354 722 q 177 673 257 722 q 52 539 98 625 q 5 349 5 454 q 50 162 5 245 q 173 33 94 79 q 351 -14 252 -14 q 530 34 450 -14 q 657 168 611 83 q 703 357 703 253 q 657 542 703 458 q 531 674 611 626 q 354 722 451 722 m 354 550 q 450 497 417 550 q 484 345 484 444 q 357 159 484 159 q 224 360 224 159 q 258 500 224 450 q 354 550 292 550 m 239 792 l 376 792 l 585 1024 l 391 1024 l 239 792 z "},"ô":{"ha":709,"x_min":5,"x_max":703,"o":"m 354 722 q 177 673 257 722 q 52 539 98 625 q 5 349 5 454 q 50 162 5 245 q 173 33 94 79 q 351 -14 252 -14 q 530 34 450 -14 q 657 168 611 83 q 703 357 703 253 q 657 542 703 458 q 531 674 611 626 q 354 722 451 722 m 354 550 q 450 497 417 550 q 484 345 484 444 q 357 159 484 159 q 224 360 224 159 q 258 500 224 450 q 354 550 292 550 m 146 786 l 296 786 l 354 907 l 413 786 l 559 786 l 416 1021 l 290 1021 l 146 786 z "},"õ":{"ha":709,"x_min":5,"x_max":703,"o":"m 354 722 q 177 673 257 722 q 52 539 98 625 q 5 349 5 454 q 50 162 5 245 q 173 33 94 79 q 351 -14 252 -14 q 530 34 450 -14 q 657 168 611 83 q 703 357 703 253 q 657 542 703 458 q 531 674 611 626 q 354 722 451 722 m 354 550 q 450 497 417 550 q 484 345 484 444 q 357 159 484 159 q 224 360 224 159 q 258 500 224 450 q 354 550 292 550 m 70 895 l 143 792 l 151 798 q 257 836 214 836 q 293 831 277 836 l 340 817 q 436 806 391 806 q 597 873 538 806 l 524 983 q 420 938 466 938 q 340 956 387 938 q 245 979 288 979 q 70 895 153 979 z "},"ö":{"ha":709,"x_min":5,"x_max":703,"o":"m 354 722 q 177 673 257 722 q 52 539 98 625 q 5 349 5 454 q 50 162 5 245 q 173 33 94 79 q 351 -14 252 -14 q 530 34 450 -14 q 657 168 611 83 q 703 357 703 253 q 657 542 703 458 q 531 674 611 626 q 354 722 451 722 m 354 550 q 450 497 417 550 q 484 345 484 444 q 357 159 484 159 q 224 360 224 159 q 258 500 224 450 q 354 550 292 550 m 213 1004 q 135 970 164 1004 q 106 892 106 937 q 133 816 106 848 q 210 783 161 783 q 289 817 260 783 q 317 895 317 850 q 290 972 317 941 q 213 1004 262 1004 m 500 1003 q 421 968 450 1003 q 392 889 392 934 q 420 811 392 844 q 497 778 448 778 q 576 812 548 778 q 604 893 604 847 q 577 970 604 937 q 500 1003 550 1003 z "},"ø":{"ha":709,"x_min":3,"x_max":700,"o":"m 623 722 l 564 653 q 357 722 469 722 q 215 690 281 722 q 102 602 150 658 q 28 476 54 545 q 3 335 3 406 q 93 99 3 195 l 32 28 l 86 -17 l 143 49 q 351 -14 234 -14 q 534 39 454 -14 q 657 179 614 92 q 700 361 700 267 q 614 603 700 498 l 675 677 l 623 722 m 235 265 q 225 370 225 319 q 354 550 225 550 q 442 507 411 550 l 235 265 m 265 197 l 477 440 q 484 346 484 395 q 357 159 484 159 q 306 167 325 159 q 265 197 286 175 z "},"ù":{"ha":800,"x_min":9,"x_max":795,"o":"m 9 547 l 103 547 l 103 217 q 152 47 103 106 q 293 -12 200 -12 q 484 75 391 -12 l 484 0 l 795 0 l 795 159 l 700 159 l 700 707 l 391 707 l 391 547 l 484 547 l 484 228 q 376 178 432 178 q 321 204 338 178 q 304 293 304 231 l 304 707 l 9 707 l 9 547 m 195 1021 l 401 792 l 535 792 l 393 1021 l 195 1021 z "},"ú":{"ha":800,"x_min":9,"x_max":795,"o":"m 9 547 l 103 547 l 103 217 q 152 47 103 106 q 293 -12 200 -12 q 484 75 391 -12 l 484 0 l 795 0 l 795 159 l 700 159 l 700 707 l 391 707 l 391 547 l 484 547 l 484 228 q 376 178 432 178 q 321 204 338 178 q 304 293 304 231 l 304 707 l 9 707 l 9 547 m 290 792 l 427 792 l 633 1024 l 439 1024 l 290 792 z "},"û":{"ha":800,"x_min":9,"x_max":795,"o":"m 9 547 l 103 547 l 103 217 q 152 47 103 106 q 293 -12 200 -12 q 484 75 391 -12 l 484 0 l 795 0 l 795 159 l 700 158 l 700 707 l 391 707 l 391 547 l 484 547 l 484 228 q 376 178 432 178 q 321 204 338 178 q 304 293 304 231 l 304 707 l 9 707 l 9 547 m 195 786 l 343 786 l 401 907 l 460 786 l 606 786 l 463 1021 l 338 1021 l 195 786 z "},"ü":{"ha":800,"x_min":9,"x_max":795,"o":"m 9 547 l 103 547 l 103 217 q 152 47 103 106 q 293 -12 200 -12 q 484 75 391 -12 l 484 0 l 795 0 l 795 159 l 700 158 l 700 707 l 391 707 l 391 547 l 484 547 l 484 228 q 376 178 432 178 q 321 204 338 178 q 304 293 304 231 l 304 707 l 9 707 l 9 547 m 260 1004 q 182 970 210 1004 q 153 892 153 937 q 180 815 153 848 q 257 783 208 783 q 336 817 307 783 q 366 895 366 850 q 338 972 366 940 q 260 1004 310 1004 m 547 1003 q 470 969 498 1003 q 442 890 442 935 q 470 811 442 845 q 547 778 497 778 q 627 811 599 778 q 654 890 654 844 q 626 969 654 936 q 547 1003 597 1003 z "},"ý":{"ha":768,"x_min":0,"x_max":774,"o":"m 0 547 l 83 547 l 318 5 l 265 -124 l 122 -124 l 122 -282 l 375 -282 l 427 -153 l 686 547 l 774 547 l 774 707 l 451 707 l 451 547 l 526 547 l 410 228 l 302 547 l 370 547 l 370 707 l 0 707 l 0 547 m 271 792 l 413 792 l 617 1024 l 427 1024 l 271 792 z "},"ÿ":{"ha":768,"x_min":0,"x_max":774,"o":"m 0 547 l 83 547 l 318 5 l 265 -124 l 122 -124 l 122 -282 l 375 -282 l 426 -153 l 686 547 l 774 547 l 774 707 l 451 707 l 451 547 l 526 547 l 410 228 l 302 547 l 370 547 l 370 707 l 0 707 l 0 547 m 245 1004 q 167 970 195 1004 q 139 892 139 937 q 166 815 139 848 q 242 783 193 783 q 320 817 292 783 q 349 895 349 850 q 321 972 349 940 q 245 1004 294 1004 m 535 1003 q 456 968 484 1003 q 426 889 426 934 q 454 811 426 844 q 532 778 482 778 q 611 811 583 778 q 639 892 639 845 q 611 970 639 937 q 535 1003 584 1003 z "}}}
